<svg width="128" height="60" viewBox="0 0 128 60" fill="none" xmlns="http://www.w3.org/2000/svg">
<g clip-path="url(#clip0_7_29)">
<path d="M62.96 1.38599H63.2L63.44 2.42599L63.6 3.54599V7.70599L63.52 9.86599V18.106L63.68 29.066L64 35.226L64.16 37.306L64.4 38.906L64.48 39.386H64.88L65.04 37.546L65.44 30.186L65.52 28.986L65.76 28.906V30.106L65.6 35.546L65.44 38.426L65.52 39.466L65.92 39.546L66.08 38.426L66.4 35.146L66.56 33.946H66.8L66.48 38.666V39.626L66.96 39.786L67.04 39.066L67.6 36.266L68.48 31.066L69.6 24.986L70.16 21.866L70.88 18.186L71.12 16.586L71.28 16.266H71.52L71.28 18.106L70.96 19.786L70.48 22.746L69.6 28.426L69.2 31.146L67.92 38.826L67.76 40.026L68.4 40.106L68.96 38.586L70.4 33.626L71.12 31.306L71.36 30.986L71.28 31.786L70.4 34.986L69.68 38.106L69.12 40.346L70.16 40.586L71.2 38.266L72.88 33.786L73.76 31.626L74.96 28.426L75.76 26.506L76.88 23.946L77.52 22.426L77.68 22.346L77.92 21.946L78.08 22.106L77.6 23.786L76.56 26.666L75.6 29.466L74.72 31.786L72.08 38.826L71.28 40.746V40.986L71.84 41.066L73.12 38.746L74.4 36.186L75.2 34.666L75.6 34.106L75.68 34.346L75.28 35.466L73.76 39.306L72.88 41.386V41.626L73.28 41.786H73.52L74.48 40.426L75.2 39.386L76.24 37.866L77.28 36.426L78.32 34.906L78.88 34.106L80.64 31.466L81.52 30.026L82.24 28.906L83.2 27.306L84.08 25.786L86 22.906L86.96 21.386L87.76 20.106L88.72 18.746L89.52 17.466L90.48 16.106L91.12 15.066L93.04 11.386L93.92 10.106L94.8 9.06599L95.12 8.66599L95.84 8.10599H96L95.92 8.82599L95.52 10.106L94.88 11.386L94.08 12.586L93.36 13.546L92.08 15.146L91.2 16.426L90.4 17.626L88.64 20.346L87.52 22.186L86.56 23.706L85.92 24.826L85.12 26.106L84.32 27.546L83.36 29.146L82.72 30.266L81.92 31.786L80.96 33.626L80.16 35.226L79.36 36.746L78.48 38.586L77.52 40.506L76.4 42.426L76 43.146L76.4 43.386L76.8 43.306L77.44 42.506L78.32 41.386L79.28 40.186L79.84 39.466L80.72 38.346L80.96 38.186L81.04 38.346L80.32 39.466L79.44 40.586L78.48 41.866L77.52 43.226L77.2 43.626L77.28 43.866L77.68 44.106L78.08 44.026L78.72 43.226L79.76 42.106L80.32 41.466L81.04 40.666L81.6 40.026L82.48 39.066L83.2 38.186L83.68 37.626L84.08 37.226L85.12 36.266L86.56 34.826L87.12 34.186L88.96 32.346L89.52 31.706L90.24 30.986L90.8 30.346L92.08 29.066L92.32 28.746H92.48L92.64 28.426L92.88 28.346V28.186L93.28 28.026L93.12 28.426L90.48 31.066L89.92 31.706L88.72 32.986L88 33.866L87.44 34.346L86.88 34.986L86.16 35.946L85.28 36.906L84.56 37.706L83.52 38.826L82.96 39.466L81.92 40.586L81.36 41.226L80.64 42.026L79.92 42.906L78.72 44.186L78.48 44.426L78.56 44.746L78.88 44.906L79.52 44.346L80.8 43.146L81.6 42.426L82.48 41.706L83.92 40.266L84.48 39.866L84.88 39.946L84.8 40.346L84.24 40.986L83.12 42.106L82.48 42.666L81.92 43.306L80.72 44.506L79.84 45.226L79.68 45.386L79.76 45.706L80.32 46.346L80.72 46.186L82.24 45.066L83.6 44.106L84.8 43.226L86.24 42.186L88.96 40.266L89.6 39.786L90.88 38.906L92 38.106L93.04 37.306L94.48 36.346L95.92 35.306L97.04 34.506L98.48 33.466L99.44 32.906H99.6L99.52 33.466L98.56 34.426L97.12 35.546L96.08 36.426L95.2 37.066L94.08 37.946L93.12 38.746L92.32 39.306L90.64 40.586L89.6 41.386L88.48 42.266L87.2 43.306L86.16 44.106L84.88 45.146L83.6 46.106L82.32 47.146L81.68 47.706H81.52L81.6 47.946L81.92 48.186V48.346L82.56 48.106L83.92 47.306L86.88 45.386L88.96 44.106L90.8 42.906L91.52 42.506L91.44 42.906L90.48 43.466L89.28 44.266L88.24 44.906L87.84 45.226L84.32 47.546L83.04 48.346L82.56 48.666L82.88 49.306L83.68 49.066L85.92 47.946L88 47.066L90 46.106L93.6 44.346L95.12 43.546L96.24 42.906L96.64 42.746L96.88 42.826L96.48 43.146L95.2 43.786L93.92 44.506L92.48 45.306L90.96 46.026L90.24 46.506L88.24 47.466L84.88 49.146L83.76 49.866V50.346H84.32L85.76 49.866L87.76 49.146L91.44 47.946L93.84 47.066L95.44 46.426L97.12 45.786L102.72 43.546L105.12 42.506L107.28 41.626L109.84 40.506L113.76 38.746L114.96 38.106L116.24 37.386L117.52 36.746L118.8 36.346L119.28 36.266H120.88L119.84 37.306L118.64 38.106L117.6 38.586L115.44 39.226L113.36 39.786L111.6 40.426L110.32 41.066L108.96 41.786L107.12 42.666L105.12 43.706L103.84 44.346L101.04 45.706L99.12 46.586L97.84 47.226L96.24 47.946L93.52 49.226L91.2 50.346L89.2 51.306L87.44 52.266L86.48 52.746L85.68 53.226L85.52 53.306V53.626H86.08L87.76 53.146L89.76 52.506L92.72 51.706L96 50.666L97.92 50.106L104.64 48.026L105.68 47.706H105.92V47.866L103.36 48.666L100.48 49.546L98.08 50.346L94.56 51.466L91.36 52.586L89.68 53.226L86.4 54.266L86.24 54.346V55.146L88.56 54.586L90.8 54.106L96.72 52.746L99.68 52.026L101.52 51.546L103.28 51.066L104.08 50.986L104.24 51.226V51.626L100.88 52.586L98.96 53.066L96.08 53.866L93.04 54.746L89.44 55.786L87.12 56.506L86.72 56.826L86.64 57.226H87.84L90.4 56.986L94.88 56.266L96.56 56.026H97.2L97.12 56.266L95.2 56.586L92.88 56.906L90.8 57.306L93.2 57.146L99.36 56.906L103.76 56.666L107.28 56.346L109.28 56.266L109.68 56.346V56.826L109.6 56.906L107.6 57.066L103.6 57.146L100.08 57.386L95.12 57.546L87.36 57.946H85.6L85.2 57.066L84.56 55.466L83.92 54.106L83.04 52.506L81.92 50.986L81.2 50.186L80.48 49.306L79.76 48.586L79.12 48.026L78.24 47.226L76.88 46.186L75.52 45.306L73.44 44.186L71.36 43.306L69.2 42.666L67.2 42.266L65.76 42.106L64.56 42.026H62.72L60.72 42.266L58.88 42.586L56.88 43.146L55.12 43.786L53.12 44.746L51.6 45.626L50.4 46.426L49.6 47.066L48.72 47.786L48.08 48.426L47.44 48.986L46.64 49.786L46.08 50.506L45.28 51.386L44.24 52.986L43.12 55.066L41.92 57.706L41.68 57.946L40.56 58.106L40.48 57.866L40.56 57.626L35.28 57.546L32.24 57.466L28.4 57.226L27.68 57.146L24.4 56.986L21.36 56.826L20.48 56.746L20.24 56.666L20.32 56.426L20.64 56.346H22.32L29.68 56.746L34 56.826L40.56 57.066L40.88 56.266L38.72 55.946L32.72 54.826L28.64 54.106V53.946L30.08 54.026L33.44 54.586L35.84 55.066L39.28 55.626L41.04 55.786L41.28 55.226V54.826L39.04 54.266L37.68 53.866L31.28 52.266L28.8 51.626L26.32 50.906L24.8 50.506L24.48 50.346L23.04 50.106L19.6 49.306L17.12 48.746L16.56 48.426V48.186L17.28 48.106L20.56 49.066L24.08 50.026L25.6 50.426L29.84 51.386L34.88 52.666L40.88 54.106L41.68 54.266L41.76 53.866L41.92 53.466L41.44 53.306L40.72 52.986L39.12 52.346L37.84 51.866L36 51.146L31.2 49.626L31.28 49.466L32.24 49.626L34.4 50.266L36.4 50.746L38.32 51.306L42.4 52.666L42.48 52.026L41.6 51.466L39.28 50.506L37.68 49.786L35.44 48.826L32.08 47.226L30.24 46.346L27.6 45.066L25.12 43.786L23.52 43.066L22.48 42.586L20.32 41.706L18.8 41.066L17.52 40.666L14.96 39.626L12.16 38.746L10.64 37.946L9.67997 37.226L8.95997 36.586L8.71997 36.346L9.03997 36.186H10.32L12 36.746L14 37.706L15.92 38.746L17.36 39.546L18.64 40.186L22.08 41.706L24.4 42.586L26.32 43.386L36.8 47.226L39.2 47.946L43.76 49.466H44.16L44.64 48.826L43.92 48.346L42.4 47.466L40.56 46.346L39.52 45.706L37.92 44.666L36.08 43.546L34.4 42.586L33.52 42.026L33.36 41.706L34.08 41.946L36.24 43.226L37.52 44.026L39.2 44.906L40.96 45.866L42.56 46.746L44.24 47.706L45.44 48.266H45.6L45.84 47.866L45.2 47.226L43.92 46.346L42.4 45.226L41.2 44.266L39.12 42.666L37.92 41.706L36.64 40.746L36 40.186L35.6 39.786L34.8 39.146L34.64 39.066V38.906L34.32 38.746L33.2 37.866L32.16 36.986L30.8 35.946L29.52 34.906L28.08 33.866L27.68 33.466L28.16 33.546L29.44 34.586L30.88 35.706L32 36.506L33.44 37.546L34.32 38.186L35.92 39.306L36.64 39.866L37.6 40.586L39.68 42.186L40.8 42.906L42.08 43.866L43.2 44.586L46.8 46.746L47.12 46.666L47.6 46.266L47.12 45.706L45.76 44.346L45.12 43.786L44.08 42.906L43.2 42.186L42.24 41.306L41.36 40.586L40.72 40.026L40.88 39.946L42 40.746L42.8 41.386L43.92 42.346L45.2 43.386L45.84 43.946L46.88 44.826L47.68 45.386L48.08 45.626L48.4 45.546L48.8 45.386L48.56 44.906L45.36 41.706L44.8 41.066L40.08 36.346L39.92 35.946H39.76L39.28 35.306L38.64 34.746L36.56 32.666L36.32 32.266L35.84 31.946L35.28 31.226L34 29.866L33.36 29.226V28.986L33.68 29.146L39.36 34.826L40 35.386L41.28 36.586L42.4 37.626L43.04 38.186L43.92 38.986L44.72 39.626L46 40.826L46.64 41.386L49.76 44.266L50.16 44.186L50.56 43.946L50.48 43.546L49.68 42.506L48.64 41.066L48.08 40.266L47.52 39.626L46.4 38.106L45.68 37.066L45.04 36.266L44.24 35.146L43.36 34.026L42.56 32.986L41.84 32.026L41.12 31.146L40.48 30.346L40.56 30.186L41.12 30.746L41.84 31.626L42.4 32.346L43.28 33.386L43.92 34.106L44.48 34.746L44.8 35.146L45.68 36.266L46.72 37.546L47.84 39.066L48.96 40.506L49.76 41.466L50.64 42.586L51.2 43.306V43.466L51.92 43.066H52.24L51.76 41.946L50.8 40.426L49.92 39.066L47.52 35.466L46.48 33.866L45.04 31.706L44.64 31.146L44.72 30.986L45.36 31.786L46.32 33.146L46.96 34.026L47.92 35.386L48.96 36.826L49.76 37.946L50.56 39.226L51.6 40.666L52.24 41.626L52.72 42.266L53.04 42.346L52.88 41.866L52.24 40.586L50.88 37.786L49.68 35.146L48.56 32.826L47.52 30.586L46.72 29.226L45.68 27.226L44.88 25.706L43.76 23.626L42.72 21.786L41.76 19.786L39.84 16.266L38.8 14.666L38.16 13.786L37.44 12.826L36.72 11.786L35.76 10.106L35.28 8.82599L35.04 7.94599V7.38599L35.44 7.54599L36.48 8.50599L37.2 9.46599L38.32 11.626L39.52 14.266L40 15.306L40.64 16.426L41.52 17.706L42.4 19.146L43.44 20.826L44.48 22.586L45.6 24.506L46.72 26.586L47.36 27.706L47.92 28.586L48.96 30.106L50.88 32.826L51.76 34.186L53.52 36.826L54.72 38.746L55.36 39.866L55.92 40.666L56.16 40.986H56.56L56.4 40.186L55.52 37.866L54.48 34.906L54 33.786L53.44 32.186L52.72 30.586L52.08 28.906L51.44 27.306L49.92 23.466L49.68 22.906V22.666L49.92 22.746L50.96 25.306L51.6 26.986L51.92 27.786L52.56 29.226L53.2 30.906L53.76 32.426L54.24 33.466L54.64 34.426L55.52 36.746L55.76 37.386V37.626H55.92L56.8 39.786L57.12 40.746L57.76 40.666L58.48 40.506L58.24 39.466L57.52 36.906L56.72 34.186L56.08 31.786L55.6 30.266L54.96 27.866L54.32 25.546L53.52 22.586L53.44 22.186V21.466L53.76 21.386L54.48 23.386L55.36 26.426L55.92 28.186L57.44 33.706L58.16 36.506L58.8 39.066L59.04 39.946V40.266L59.76 40.106L59.52 38.106L58.48 32.186V31.466L58.64 31.626L59.76 37.226L60.08 38.986L60.32 39.946L60.88 39.786L60.8 38.106L60.4 34.586L59.92 29.706L59.36 25.226L58.64 19.786L58.56 18.666L58.72 18.746L59.2 22.266L59.84 26.906L60.4 30.986L60.8 34.266L61.04 36.426L61.36 39.226V39.786L61.76 39.706L61.92 37.946L62 36.746L62.32 27.866L62.4 25.466L62.48 20.266V10.586L62.4 8.66599V3.62599L62.64 2.34599L62.96 1.38599Z" fill="#F84910"/>
<path d="M53.5999 21.386H53.7599L54.4799 23.386L55.3599 26.426L55.9199 28.186L57.4399 33.706L58.1599 36.506L58.2399 36.826V37.386H57.6799L56.9599 35.066L56.2399 32.346L55.5999 30.266L54.9599 27.866L54.3199 25.546L53.5199 22.586L53.4399 22.186V21.466L53.5999 21.386Z" fill="#F84910"/>
<path d="M93.12 28.026H93.28L93.12 28.426L90.48 31.066L89.92 31.706L88.72 32.986L88 33.866L87.44 34.346L86.88 34.986L86.16 35.946L85.28 36.906L84.56 37.706L83.52 38.826L82.96 39.466L81.92 40.586L81.36 41.226L80.64 42.026L79.92 42.906L79.2 43.706V43.466L79.28 42.906L78.88 43.306L78.72 43.226L79.76 42.106L80.32 41.466L81.04 40.666L81.6 40.026L82.48 39.066L83.2 38.186L83.68 37.626L84.08 37.226L85.12 36.266L86.56 34.826L87.12 34.186L88.96 32.346L89.52 31.706L90.24 30.986L90.8 30.346L92.08 29.066L92.32 28.746H92.48L92.64 28.426L92.88 28.346V28.186L93.12 28.026Z" fill="#F84910"/>
<path d="M16.8801 48.1062L17.5201 48.1862L21.1201 49.2262L23.8401 49.9462L24.8801 50.2662L28.1601 50.9862L32.7201 52.1062L38.4801 53.5462L38.4001 54.0262L36.9601 53.7062L34.2401 52.9862L32.2401 52.5062L28.8001 51.6262L26.3201 50.9062L24.8001 50.5062L24.4801 50.3462L23.0401 50.1062L19.6001 49.3062L17.1201 48.7462L16.5601 48.4262V48.1862L16.8801 48.1062Z" fill="#F84910"/>
<path d="M108.56 56.2661H109.28L109.68 56.3461V56.8261L109.6 56.9061L107.6 57.0661L103.6 57.1461L100.08 57.3861L95.12 57.5461L93.52 57.6261H91.68V57.4661L91.36 57.3061L93.2 57.1461L99.36 56.9061L103.76 56.6661L107.28 56.3461L108.56 56.2661Z" fill="#F84910"/>
<path d="M6.96002 54.5862H9.20002L10.88 54.6662L15.76 55.2262L16.72 55.3862L17.04 55.5462V55.7062H13.6L11.76 55.6262L8.72002 55.3862L7.28002 55.2262L6.40002 54.9862V54.8262L6.96002 54.5862Z" fill="#F84910"/>
<path d="M20.64 56.3462H22.32L29.68 56.7462L29.84 56.8262L31.76 56.9062H32.64L33.68 57.0662V57.2262L32.56 57.3062H29.76L27.68 57.1462L24.4 56.9862L21.36 56.8262L20.48 56.7462L20.24 56.6662L20.32 56.4262L20.64 56.3462Z" fill="#F84910"/>
<path d="M40.48 30.186L41.04 30.666L41.92 31.706L42.4 32.346L43.28 33.386L43.92 34.106L44.48 34.746L44.8 35.146L45.68 36.266L46.72 37.546L47.84 39.066L48.96 40.506L50.16 41.946L50 42.266L49.68 42.186L49.52 41.866L49.28 41.626L48.72 40.986L48.32 40.586L47.6 39.706L46.8 38.666L45.92 37.386L45.04 36.266L44.24 35.146L43.36 34.026L42.56 32.986L41.84 32.026L41.12 31.146L40.48 30.346V30.186Z" fill="#F84910"/>
<path d="M16.6401 48.5061L17.4401 48.7461L22.0001 49.7861L23.3601 50.1061L24.4801 50.2661L25.3601 50.5861L27.7601 51.2261L29.7601 51.7861V51.8661L29.2001 51.9461L29.0401 52.0261L28.3201 51.8661L28.0001 51.6261L26.9601 51.3861L26.2401 51.1461L24.4801 50.9061L23.0401 50.5861L21.8401 50.2661L19.9201 49.8661L19.2001 49.6261L17.6801 49.3061L16.6401 49.1461L16.5601 48.9061L16.7201 48.8261L16.6401 48.5061Z" fill="#F84910"/>
<path d="M107.2 24.746L107.36 24.826L107.28 25.386L106.16 26.506L105.36 27.146L103.92 28.266L102.48 29.306L101.36 30.106L101.2 30.266L100.88 30.186L101.6 29.466H101.76V29.306H101.92V29.146L102.56 28.586L104.16 26.986L105.04 26.266L105.76 25.626L106.64 25.066L107.2 24.746Z" fill="#F84910"/>
<path d="M121.28 54.7461H123.68V54.9861L122.88 55.3061L121.2 55.4661L116.64 55.7061H114.4L114.48 55.4661L115.36 55.3061L119.92 54.8261L121.28 54.7461Z" fill="#F84910"/>
<path d="M99.68 21.306H99.92L99.84 21.706L99.2 22.506L97.76 24.106L95.68 26.186L95.2 26.506H95.04L95.12 26.026V25.706L96.56 24.266L97.12 23.626L99.12 21.626L99.68 21.306Z" fill="#F84910"/>
<path d="M19.04 23.866L19.44 23.946L20.4 24.666L21.28 25.386L22.08 26.106L23.44 27.386L24 27.946L24.64 28.506L25.68 29.546L25.6 29.706L24.32 28.746L22.88 27.626L20.64 25.866L19.6 24.906L19.12 24.266L19.04 23.866Z" fill="#F84910"/>
<path d="M58.72 31.866L58.88 32.106L59.36 34.586L59.52 35.466L60 36.346L60.16 36.266L60.32 34.906H60.4L60.8 38.346V39.946L60.32 40.026L60.16 39.786L59.76 37.786L59.28 35.306L58.72 32.266V31.866Z" fill="#F84910"/>
<path d="M33.36 28.986L33.68 29.146L39.36 34.826L40 35.386L40.4 35.786L40.48 36.346L40.96 36.506V36.666L41.28 36.826L41.6 37.146L41.52 37.306L40.88 36.986L40.4 36.666L39.92 36.106V35.946H39.76L39.28 35.306L38.64 34.746L36.56 32.666L36.32 32.266L35.84 31.946L35.28 31.226L34 29.866L33.36 29.226V28.986Z" fill="#F84910"/>
<path d="M44.64 30.986L45.04 31.386L46.08 32.826L46.8 33.786L47.36 34.586L48.32 35.946L49.44 37.466L50.4 38.986L51.2 40.106L51.92 41.146L51.84 41.306L51.52 41.386L51.2 41.066L50.24 39.546L47.52 35.466L46.48 33.866L45.04 31.706L44.64 31.146V30.986Z" fill="#F84910"/>
<path d="M29.4399 21.226L29.8399 21.386L30.4799 21.946L31.5199 22.986L32.0799 23.706L32.9599 24.746L33.5999 25.626V25.946L33.1999 25.786L32.5599 25.226L31.1999 23.866L30.4799 22.986L29.5999 21.946L29.4399 21.626V21.226Z" fill="#F84910"/>
<path d="M105.68 47.7061H105.92V47.8661L103.36 48.6661L100.48 49.5461L98.08 50.3461L94.56 51.4661L93.44 51.8661L92.32 52.1061L91.52 52.3461L90.8 52.5061L89.6 52.8261L87.6 53.3861L87.36 53.3061L89.76 52.5061L92.72 51.7061L96 50.6661L97.92 50.1061L104.64 48.0261L105.68 47.7061Z" fill="#F84910"/>
<path d="M49.6801 22.666L49.9201 22.746L50.9601 25.306L51.6001 26.986L51.9201 27.786L52.5601 29.226L53.2001 30.906L53.7601 32.426L54.2401 33.466L54.6401 34.426L55.5201 36.746V37.386L55.4401 37.226H55.2801L54.4801 34.906L54.0001 33.786L53.4401 32.186L52.7201 30.586L52.0801 28.906L51.4401 27.306L49.9201 23.466L49.6801 22.906V22.666Z" fill="#F84910"/>
<path d="M80.7999 12.506H80.9599L80.7999 13.466L80.2399 14.986L79.4399 16.826L78.4799 18.586L78.3199 18.426L78.6399 17.146L79.1999 15.626L79.9999 13.706L80.4799 12.746L80.7999 12.506Z" fill="#F84910"/>
<path d="M72.96 7.62598H73.2V8.58598L72.8 10.346L72.24 12.186L72 12.746L71.76 12.586L71.84 11.146L72.24 9.06598L72.56 7.86598L72.96 7.62598Z" fill="#F84910"/>
<path d="M52 12.746H52.16L52.56 13.706L53.04 15.546L53.28 16.586L53.36 17.306L53.28 17.546L52.88 17.466L52.56 16.666L52 14.746L51.76 13.466V12.986L52 12.746Z" fill="#F84910"/>
<path d="M91.4401 42.5061L91.5201 42.8261L90.2401 43.6261L88.8801 44.5061L88.1601 44.9861L87.3601 45.5461L83.8401 47.8661L83.6001 48.0261H83.3601V47.8661L82.8801 48.1861L82.5601 48.1061L83.9201 47.3061L86.8801 45.3861L88.9601 44.1061L90.8001 42.9061L91.4401 42.5061Z" fill="#F84910"/>
<path d="M65.6 28.906H65.76V30.106L65.6 35.546L65.44 38.426L65.36 38.826H65.28L65.12 38.266V35.786L65.52 28.986L65.6 28.906Z" fill="#F84910"/>
<path d="M28.16 33.946L28.48 34.106L29.52 34.826L30.56 35.706L31.92 36.746L32.72 37.386L34 38.426L34.64 38.906V39.066L35.04 39.226L35.68 39.786L36 40.106L36.64 40.666H36.4L35.6 40.026L34.64 39.306L33.68 38.426L33.36 38.186L32.72 37.866L31.84 37.146L31.36 36.826L30.4 35.946V35.786L29.6 35.626L28.8 34.906L28.4 34.506L28.16 33.946Z" fill="#F84910"/>
<path d="M28.4 29.066L28.8 29.226L29.84 30.106L30.8 30.986L31.44 31.546L32.32 32.346L33.2 33.066L34 33.786L34.56 34.266H34.32L33.52 33.546L33.12 33.226L32.56 32.986L32.08 32.746L31.84 32.666V32.506H31.68L31.28 31.946L30.8 31.626V31.466H30.64V31.306L30.4 31.226L30.16 30.906L29.52 30.586L28.96 30.106L28.4 29.306V29.066Z" fill="#F84910"/>
<path d="M99.8399 21.146L99.9999 21.226L99.9199 21.546V21.306L99.1199 21.706L96.7199 24.106L96.1599 24.746L95.6799 25.146L95.4399 24.746L95.5199 24.426L96.4799 23.466L96.9599 23.146L97.3599 22.906L97.7599 22.346L98.2399 22.106L98.5599 21.466L98.8799 21.226H99.5999L99.8399 21.146Z" fill="#F84910"/>
<path d="M33.36 41.7061L34.08 41.9461L36.24 43.2261L37.52 44.0261L39.2 44.9061L40.32 45.5461L40.4 45.7061H39.92L39.36 45.6261L37.92 44.6661L36.08 43.5461L34.4 42.5861L33.52 42.0261L33.36 41.7061Z" fill="#F84910"/>
<path d="M71.28 30.986H71.36L71.28 31.786L70.4 34.986L69.84 37.306H69.68L69.52 37.866L69.2 38.586L68.96 39.146L68.8 39.226L69.04 38.266L69.68 36.106L70.88 32.026L71.28 30.986Z" fill="#F84910"/>
<path d="M108.56 56.2661H109.28L109.68 56.3461V56.8261L109.6 56.9061L107.6 57.0661H104.32V56.9861L105.28 56.8261L105.92 56.7461L106.48 56.5861H107.44L107.52 56.5061L107.28 56.3461L108.56 56.2661Z" fill="#F84910"/>
<path d="M28.64 53.946L30.08 54.026L33.44 54.586L35.84 55.066L37.12 55.306L37.04 55.546L36.08 55.466L32.32 54.746L28.88 54.186L28.64 54.106V53.946Z" fill="#F84910"/>
<path d="M80.88 38.1862L81.04 38.3462L80.32 39.4662L79.44 40.5862L78.48 41.8662L77.52 43.2262L77.28 43.3862L77.12 43.0662L77.28 42.6662L77.84 42.0262L79.52 39.8662L80.4 38.7462L80.88 38.1862Z" fill="#F84910"/>
<path d="M96.56 56.0261H97.2L97.12 56.2661L95.2 56.5861L92.88 56.9061L90.8 57.3061L89.44 57.4661V57.3061L89.28 57.2261L89.76 57.0661L95.52 56.1861L96.56 56.0261Z" fill="#F84910"/>
<path d="M119.84 35.7061L120.56 35.8661L121.12 36.1061L120.96 36.4261L120.8 36.3461H119.28L118.24 36.5861L117.52 36.8261L117.36 36.7461L117.44 36.5061L117.36 36.1061L117.84 35.8661L119.84 35.7061Z" fill="#F84910"/>
<path d="M75.6 34.106L75.68 34.346L75.28 35.466L74.32 37.866L74 37.786L73.52 38.586L73.12 38.906L73.28 38.426L74.4 36.186L75.2 34.666L75.6 34.106Z" fill="#F84910"/>
<path d="M33.92 52.5061L34.64 52.5861L38.48 53.5461L38.4 54.0261L36.96 53.7061L34.24 52.9861L33.84 52.5861L33.92 52.5061Z" fill="#F84910"/>
<path d="M88.72 27.226V27.466L87.6 28.906L85.92 31.146L83.68 34.186L83.2 34.826H83.04L83.12 34.506L84.08 33.146L84.96 32.026L86.08 30.506L87.04 29.306L87.84 28.266L88.56 27.386L88.72 27.226Z" fill="#F84910"/>
<path d="M82.24 22.026L82.48 22.106L81.76 23.386L80.56 25.786L80.08 26.586L79.44 27.866L78.64 29.386L78.48 29.466L78.56 29.066L80.8 24.586L81.6 23.066L82.16 22.106L82.24 22.026Z" fill="#F84910"/>
<path d="M27.52 43.0662H28L28.72 43.5462L29.6 44.1062L29.84 44.4262V44.5862H30V44.7462L29.2 44.5062L27.36 43.8662L27.6 43.7862L27.52 43.0662Z" fill="#F84910"/>
<path d="M96.64 42.7461L96.88 42.8261L96.48 43.1461L95.2 43.7861L93.92 44.5061L92.48 45.3061L91.52 45.7861L90.72 45.9461L90.8 45.7061L93.6 44.3461L95.12 43.5461L96.24 42.9061L96.64 42.7461Z" fill="#F84910"/>
<path d="M109.76 53.0662H110.56V53.2262L109.92 53.3862L105.52 54.0262L102.96 54.3462H102.16V54.2662L105.84 53.7062L109.36 53.1462L109.76 53.0662Z" fill="#F84910"/>
<path d="M112.56 48.5862L112.8 48.6662V48.8262L110.64 49.4662L107.28 50.3462L105.92 50.6662H105.76V50.5062L107.68 49.9462L110.8 49.0662L112.56 48.5862Z" fill="#F84910"/>
<path d="M31.28 23.626H31.76L32 23.866H32.24L33.12 24.986L33.6 25.626V25.946L33.2 25.786L32.56 25.226L31.2 23.866L31.28 23.626Z" fill="#F84910"/>
<path d="M56.96 34.666L57.2 34.746L57.52 35.466L57.68 35.146L57.84 35.226L58.24 36.826V37.386H57.68L56.96 35.066V34.666Z" fill="#F84910"/>
<path d="M94.08 32.666V32.906L93.2 33.706L92.56 34.266L91.6 35.146L90.8 35.866L90.16 36.426L89.2 37.306L88.4 38.026L88.16 38.346L87.92 38.266L88.08 37.946L89.04 37.066L89.68 36.506L90.72 35.546L91.92 34.506L92.56 33.946L93.68 32.986L94.08 32.666Z" fill="#F84910"/>
<path d="M38.5601 34.186L38.8801 34.346L40.2401 35.626L40.4001 35.786L40.4801 36.346L40.9601 36.506V36.666L41.2801 36.826L41.6001 37.146L41.5201 37.306L40.8801 36.986L40.4001 36.666L39.9201 36.106V35.946H39.7601L39.2801 35.306L38.8801 34.986L38.7201 34.506L38.5601 34.186Z" fill="#F84910"/>
<path d="M105.68 47.7061H105.92V47.8661L103.36 48.6661L100.48 49.5461L98.0799 50.3461L97.4399 50.5061V50.2661L100.24 49.3861L103.36 48.4261L105.68 47.7061Z" fill="#F84910"/>
<path d="M27.6801 33.4659L28.1601 33.5459L29.4401 34.5859L30.8801 35.7059L32.0001 36.5059L33.2001 37.3859L33.1201 37.6259L32.7201 37.4659L31.7601 36.6659L30.8001 35.9459L29.5201 34.9059L28.0801 33.8659L27.6801 33.4659Z" fill="#F84910"/>
<path d="M17.84 52.8262L19.84 53.0662L24.88 53.7862L25.04 53.9462L23.52 53.8662L20.16 53.3862L18.56 53.1462L17.76 52.9862L17.84 52.8262Z" fill="#F84910"/>
<path d="M53.5999 21.386H53.7599L54.0799 22.186L53.9999 22.746L54.4799 24.026L54.3199 24.186L54.1599 24.106L54.2399 24.666L54.0799 24.746L53.4399 22.186V21.466L53.5999 21.386Z" fill="#F84910"/>
<path d="M46.8 14.266L47.12 14.426L47.76 16.106L48.32 17.706L48.56 18.426V18.906L48.32 18.666L47.52 16.506L46.8 14.586V14.266Z" fill="#F84910"/>
<path d="M37.12 55.3062L39.92 55.7062L40.8 55.7862L41.04 55.9462L40.8 56.1862H40.16L36.96 55.6262L37.12 55.3062Z" fill="#F84910"/>
<path d="M88.32 27.866L88.48 28.186L88.08 28.826L87.44 29.706L86.64 30.746L86.24 31.146L86 31.226V30.986L87.04 29.546L88.16 28.106L88.32 27.866Z" fill="#F84910"/>
<path d="M84.48 39.8662L84.88 39.9462L84.8 40.3462L84.24 40.9862L83.36 41.8662V41.6262L83.68 41.2262H83.84L83.92 40.9862H84.08L83.76 40.6662L83.68 40.9062L83.36 41.0662L82.88 41.6262L82.48 41.9462H82.32V42.1062L81.92 42.2662L82.24 41.8662L82.88 41.3062L83.92 40.2662L84.48 39.8662Z" fill="#F84910"/>
<path d="M68.88 32.186H68.96L68.88 33.146L68.08 37.866L67.92 38.186L68 36.426L68.48 33.626L68.8 32.346L68.88 32.186Z" fill="#F84910"/>
<path d="M40.72 39.946L41.12 40.106L42 40.746L42.8 41.386L44.48 42.826L44.4 43.066L44.24 42.906L43.84 42.746L43.04 42.026L42.4 41.466L41.6 40.746L40.72 40.026V39.946Z" fill="#F84910"/>
<path d="M100.4 37.1461L100.56 37.2261L97.68 39.1461L96.24 40.0261L94.72 40.9861L93.28 41.8661H93.04L93.68 41.3861L95.28 40.4261L97.04 39.3061L98.72 38.1861L100.24 37.2261L100.4 37.1461Z" fill="#F84910"/>
<path d="M24.8 50.5061L25.6 50.6661L27.52 51.1461L29.36 51.7061L29.76 51.7861V51.8661L29.2 51.9461L29.04 52.0261L28.32 51.8661L28 51.6261L26.96 51.3861L26.72 51.1461L25.28 50.8261L24.8 50.5861V50.5061Z" fill="#F84910"/>
<path d="M89.76 18.506L89.84 18.666L89.68 19.946L89.44 20.346L88.8 20.586L88.24 21.146V20.906L89.2 19.306L89.76 18.506Z" fill="#F84910"/>
<path d="M49.6801 22.666L49.9201 22.746L50.9601 25.306L51.6001 26.986L51.9201 27.786L51.7601 28.106L50.8801 25.866L49.9201 23.466L49.6801 22.906V22.666Z" fill="#F84910"/>
<path d="M22.5601 47.0662L23.8401 47.3862L28.0801 48.7462L28.9601 49.0662L28.8801 49.2262L26.2401 48.4262L23.8401 47.6262L22.5601 47.2262V47.0662Z" fill="#F84910"/>
<path d="M66.96 17.7061L67.04 17.9461L66.88 21.6261L66.72 23.5461L66.56 25.8661H66.48V24.5861L66.8 18.0261L66.96 17.7061Z" fill="#F84910"/>
<path d="M66.56 33.946H66.8L66.56 37.546L66.48 38.346L66.32 38.266L66.24 37.786V36.906L66.48 34.266L66.56 33.946Z" fill="#F84910"/>
<path d="M84.24 37.6261L84.48 37.7061L84 38.3461L82.72 39.7061L82.32 40.1061L81.92 40.3461L82.08 40.0261L82.64 39.3061L82.8 39.1461L83.12 38.9061V38.6661L83.52 38.1061H83.68V37.9461L84.24 37.6261Z" fill="#F84910"/>
<path d="M93.28 32.906L93.68 32.986L93.36 33.386L92.48 34.106L91.6 34.906L91.28 35.066L91.36 34.746L91.68 34.266L91.84 33.946L92.56 33.546L92.96 33.146L93.28 32.906Z" fill="#F84910"/>
<path d="M28.4 29.066L28.8 29.226L29.84 30.106L30.8 30.986L31.44 31.546L32.32 32.346L33.2 33.066L34 33.786L34.56 34.266H34.32L33.52 33.546L32.64 32.826L31.52 31.866L30.48 30.906L29.84 30.346L28.4 29.146V29.066Z" fill="#F84910"/>
<path d="M24.88 50.3462L25.6 50.4262L28.8 51.1462L28.96 51.3062H28.4L28 51.3862L26.32 50.9062L25.04 50.5862L24.88 50.5062V50.3462Z" fill="#F84910"/>
<path d="M31.6801 51.946L32.3201 52.026L34.0001 52.426L33.9201 52.666L34.0801 52.906L33.1201 52.746L31.9201 52.426L31.6801 52.106V51.946Z" fill="#F84910"/>
<path d="M71.28 16.266H71.52L71.28 18.106L71.2 18.506H71.04L70.88 19.626L70.8 19.946H70.64L70.72 18.986L71.12 16.586L71.28 16.266Z" fill="#F84910"/>
<path d="M53.92 22.266L54.16 22.426L54.64 23.946L54.72 24.666H54.56L54.64 25.546L54.48 25.626L54.32 25.546L54.16 24.986V24.106L54.4 24.026L53.92 22.746V22.266Z" fill="#F84910"/>
<path d="M44.96 47.0662L45.36 47.3062L45.92 47.8662L45.6 48.3462L44.88 48.1062L44.4 47.8662L44.56 47.7862V47.6262L44.8 47.3862H44.96V47.0662Z" fill="#F84910"/>
<path d="M85.44 31.066L85.68 31.146L84.96 32.106L83.92 33.466L83.28 34.346L83.2 34.026L83.76 33.226L84.4 32.346L84.88 31.706L85.44 31.066Z" fill="#F84910"/>
<path d="M26 37.6261L26.4 37.7061L27.76 38.5861L29.28 39.5461L29.92 40.0261L29.68 40.1061L28 39.0661L26.64 38.1861L26 37.7061V37.6261Z" fill="#F84910"/>
<path d="M51.84 27.946H52L52.64 29.466L53.28 31.066V31.466H53.12L52.56 30.186L52.08 28.906L51.84 28.346V27.946Z" fill="#F84910"/>
<path d="M44.64 30.986L45.04 31.386L46.08 32.826L46.8 33.786L47.36 34.586L47.6 34.906L47.52 35.066L47.2 34.666L46.88 34.506L45.92 32.986L45.04 31.706L44.64 31.146V30.986Z" fill="#F84910"/>
<path d="M33.2 37.4662L33.6 37.6262L34.64 38.4262L34.88 38.5862L34.96 38.8262L35.12 38.9862L34.48 38.9062L33.44 38.0262L32.96 37.6262L33.2 37.4662Z" fill="#F84910"/>
<path d="M38 27.306L38.32 27.626L38.64 28.186L39.44 28.906L39.68 29.386L40.16 29.946L40.08 30.106L39.44 29.466V29.306H39.28L39.04 29.066L38.8 28.906V28.746H38.64L38.08 27.946L38 27.306Z" fill="#F84910"/>
<path d="M31.28 49.4661L32.24 49.6261L34.72 50.3461L34.64 50.5061H34L31.2 49.6261L31.28 49.4661Z" fill="#F84910"/>
<path d="M37.28 32.826L37.84 33.306L38.64 34.106L38.72 34.426L38.88 34.586L38.8 34.906L37.2 33.306L37.36 33.066L37.28 32.826Z" fill="#F84910"/>
<path d="M92.88 56.8262L93.2 56.9062L92.96 56.9862L95.52 57.0662V57.1462L93.2 57.2262L91.12 57.3862H90.4V57.3062L92.88 56.8262Z" fill="#F84910"/>
<path d="M16.88 48.3462H17.36L17.92 48.5062V48.6662L18.8 48.7462L19.36 48.9862L19.6 49.0662L19.52 49.2262L18.48 49.0662L16.88 48.6662L16.64 48.4262L16.88 48.3462Z" fill="#F84910"/>
<path d="M66.72 34.186H66.8L66.88 36.186V37.226L66.64 38.186L66.48 38.426V37.546L66.72 34.186Z" fill="#F84910"/>
<path d="M96.6401 42.7461L96.8801 42.8261L96.4801 43.1461L95.2001 43.7861L93.9201 44.5061L93.6801 44.5861V44.2661L94.9601 43.6261L96.2401 42.9061L96.6401 42.7461Z" fill="#F84910"/>
<path d="M82.24 22.026L82.48 22.106L81.76 23.386L80.88 25.146L80.72 24.906L80.88 24.506L81.84 22.586L82.24 22.026Z" fill="#F84910"/>
<path d="M96.88 24.506H97.12L97.04 24.826L95.68 26.186L95.36 26.426H95.2L95.28 26.106L96.64 24.746L96.88 24.506Z" fill="#F84910"/>
<path d="M33.12 52.7461L33.84 52.8261L36.64 53.5461L37.28 53.7061V53.7861L36.72 53.8661V53.7061L35.76 53.7861L35.44 53.5461L34.96 53.3861V53.2261L34.08 53.0661L33.12 52.8261V52.7461Z" fill="#F84910"/>
<path d="M104.8 38.3462V38.5862L103.6 39.2262L101.84 40.1862L101.36 40.4262L101.12 40.3462L103.12 39.2262L104.56 38.4262L104.8 38.3462Z" fill="#F84910"/>
<path d="M33.36 28.986L33.68 29.146L35.52 30.986L35.36 31.306L34.8 30.746L34.24 30.106L33.36 29.226V28.986Z" fill="#F84910"/>
<path d="M40.72 40.0261L41.36 40.5061L42.48 41.4661L43.28 42.1861H43.04L42.24 41.7061L41.76 41.3861L41.28 40.7461L41.2 40.5061L40.88 40.4261L40.72 40.2661V40.0261Z" fill="#F84910"/>
<path d="M56.8 22.906L56.96 23.146L57.36 24.906L57.68 26.826L57.6 27.146L57.36 26.346L56.8 23.386V22.906Z" fill="#F84910"/>
<path d="M37.76 40.8262L38.16 40.9862L39.44 42.0262L40.32 42.5862L40.4 42.7462L39.92 42.6662L39.36 42.4262L38.08 41.1462L37.76 40.8262Z" fill="#F84910"/>
<path d="M119.04 54.8262H119.92V54.9062L115.36 55.3862H114.72V55.3062L116.4 54.9862H117.28L119.04 54.8262Z" fill="#F84910"/>
<path d="M76.8 37.1461L76.88 37.3061L75.44 39.3861L74.96 40.1861L74.64 40.5861L74.4 40.6661L74.56 40.3461L75.36 39.1461L76.48 37.5461L76.8 37.1461Z" fill="#F84910"/>
<path d="M54.72 35.066H54.88L55.52 36.746V37.386L55.44 37.226H55.28L54.72 35.546V35.066Z" fill="#F84910"/>
<path d="M40.48 30.186L41.04 30.666L41.92 31.706L42.4 32.346L42.88 32.906L42.8 33.066L42.56 32.986L41.84 32.026L41.12 31.146L40.48 30.346V30.186Z" fill="#F84910"/>
<path d="M17.84 52.8262L19.84 53.0662L20.96 53.2262L20.88 53.3862H20.16L18.56 53.1462L17.76 52.9862L17.84 52.8262Z" fill="#F84910"/>
<path d="M48.5601 36.9061L48.9601 37.1461L49.5201 38.0261L49.6801 38.3461L49.9201 38.5861L50.4801 39.6261L50.4001 39.7861L48.6401 37.1461L48.5601 36.9061Z" fill="#F84910"/>
<path d="M105.68 47.7061H105.92V47.8661L103.36 48.6661L102.56 48.9061L102.24 48.8261L105.12 47.8661L105.68 47.7061Z" fill="#F84910"/>
<path d="M90.88 56.9062H91.28L91.44 57.1462L90.8 57.3062L89.44 57.4662V57.3062L89.28 57.2262L89.76 57.0662L90.88 56.9062Z" fill="#F84910"/>
<path d="M18.64 40.2661L19.36 40.5061L22.08 41.7061L22.16 41.9461L21.76 41.8661L20 40.9861L18.96 40.5861L18.64 40.2661Z" fill="#F84910"/>
<path d="M32.72 50.1062L33.52 50.2662L34.48 50.5862L34.16 50.8262L33.2 50.6662L32.88 50.5062L32.72 50.1062Z" fill="#F84910"/>
<path d="M39.44 57.2261L40.48 57.3861V57.5461H38.08V57.3861L38.32 57.3061L39.44 57.2261Z" fill="#F84910"/>
<path d="M35.44 55.0662L36.4 55.1462L37.12 55.3062L37.04 55.5462L36.08 55.4662L35.04 55.2262V55.1462L35.44 55.0662Z" fill="#F84910"/>
<path d="M23.76 27.946L24.4 28.426L24.72 28.746L25.12 28.986L25.68 29.546L25.6 29.706L24.32 28.746L23.84 28.346L23.76 27.946Z" fill="#F84910"/>
<path d="M96.5601 42.9861L96.7201 43.0661L96.3201 43.7061L95.4401 43.7861L94.7201 44.1861L94.5601 44.1061L95.9201 43.3061L96.5601 42.9861Z" fill="#F84910"/>
<path d="M87.84 47.1462H88.08V47.3062L87.28 47.6262L86.16 48.1062L85.36 48.4262L84.88 48.5862L85.12 48.3462L86.48 47.7062L87.84 47.1462Z" fill="#F84910"/>
<path d="M33.36 41.7061L34.08 41.9461L35.04 42.5061L34.96 42.6661L34.24 42.5061L33.44 41.9461L33.36 41.7061Z" fill="#F84910"/>
<path d="M46.08 37.4662L46.56 37.8662L47.28 38.9062L47.84 39.7062H47.6L46.8 38.6662L46.08 37.6262V37.4662Z" fill="#F84910"/>
<path d="M62.96 1.38599H63.2L63.36 1.94599V2.42599H62.8V1.86599L62.96 1.38599Z" fill="#F84910"/>
<path d="M93.04 33.7061L93.2 33.7861L92.96 34.0261L92.8 34.5861L92.08 35.0661L91.76 35.1461L92.24 34.5861L92.96 33.7861L93.04 33.7061Z" fill="#F84910"/>
<path d="M36.88 8.98596H37.04L37.12 9.30596L37.44 9.46596L37.84 10.186L38.08 10.906L38.16 11.306L37.92 10.986L37.12 9.46596L36.88 9.14596V8.98596Z" fill="#F84910"/>
<path d="M80 34.746L80.08 34.906L79.12 36.746L78.72 37.626L78.64 37.386L79.28 35.866L80 34.746Z" fill="#F84910"/>
<path d="M91.28 25.066L91.36 25.306L90.48 26.266L90.24 26.666L90.08 26.586L90 26.186L90.16 25.866H90.72L90.88 25.546L91.28 25.066Z" fill="#F84910"/>
<path d="M53.92 22.266L54.16 22.426L54.64 23.946L54.56 24.186V24.026H54.4L53.92 22.746V22.266Z" fill="#F84910"/>
<path d="M80.7199 12.426L81.1199 12.506L80.9599 13.226L80.6399 14.586L80.3999 14.666L80.3199 14.826L80.3999 14.426L80.7999 13.146L80.9599 12.506L80.3999 12.826L80.5599 12.506L80.7199 12.426Z" fill="#F84910"/>
<path d="M114.88 37.9462L115.2 38.0262L114.08 38.6662L113.6 38.9062L113.36 38.8262L113.68 38.7462L113.84 38.4262L114.16 38.1862L114.88 37.9462Z" fill="#F84910"/>
<path d="M90.4801 15.7061H90.7201L90.5601 16.1061L89.7601 17.2261L89.6801 16.9861L89.8401 16.7461H90.0001L90.0801 16.1061L90.1601 15.8661L90.4801 15.7061Z" fill="#F84910"/>
<path d="M112.56 48.5862L112.8 48.6662V48.8262L111.68 49.1462H110.8L111.12 48.9862L112.56 48.5862Z" fill="#F84910"/>
<path d="M22.64 53.5461L23.76 53.6261L24.88 53.7861L25.04 53.9461L23.52 53.8661L22.88 53.7861L22.64 53.5461Z" fill="#F84910"/>
<path d="M30.96 51.7861L31.68 51.8661L31.76 52.1061L31.92 52.2661L31.6 52.3461L30.72 52.1061V51.9461L30.96 51.7861Z" fill="#F84910"/>
<path d="M65.92 38.6661H66V39.5461L65.76 39.6261L65.52 39.5461V38.9861L65.68 38.7461L65.92 38.6661Z" fill="#F84910"/>
<path d="M98.4 38.1862L98.72 38.2662L97.28 39.2262L97.12 39.1462L97.52 38.6662L98.4 38.1862Z" fill="#F84910"/>
<path d="M86.16 35.546L86.4 35.626L85.68 36.506L85.36 36.666V36.266L86.16 35.546Z" fill="#F84910"/>
<path d="M96.64 42.7461L96.88 42.8261L96.48 43.1461L95.52 43.6261L95.28 43.5461L95.6 43.2261L96.64 42.7461Z" fill="#F84910"/>
<path d="M92.96 28.506L93.04 28.746L92.72 29.306L92.16 29.866V29.626L92.4 29.066L92.96 28.506Z" fill="#F84910"/>
<path d="M51.84 27.946H52L52.56 29.226L52.48 29.386L52.24 29.306L51.84 28.346V27.946Z" fill="#F84910"/>
<path d="M46.8 14.266L47.12 14.426L47.44 15.306V15.546L47.12 15.466L46.8 14.586V14.266Z" fill="#F84910"/>
<path d="M92.8799 56.8262L93.1999 56.9062L92.9599 56.9862L95.5199 57.0662V57.1462H92.3199L92.3999 56.9862L92.8799 56.8262Z" fill="#F84910"/>
<path d="M54.96 25.7061L55.04 25.8661H55.2L55.44 26.5861V27.2261L55.2 26.9861L54.96 26.1061V25.7061Z" fill="#F84910"/>
<path d="M104.8 38.3462V38.5862L103.6 39.2262L103.28 39.3862L103.36 39.0662L104.56 38.4262L104.8 38.3462Z" fill="#F84910"/>
<path d="M27.6801 33.4659L28.1601 33.5459L29.0401 34.2659L28.9601 34.5059L28.0001 33.7859L27.6801 33.4659Z" fill="#F84910"/>
<path d="M94.0799 32.666V32.906L93.1999 33.706L92.5599 34.266L92.3199 34.426L92.4799 34.106L92.8799 33.706L93.8399 32.826L94.0799 32.666Z" fill="#F84910"/>
<path d="M44.64 30.986L45.04 31.386L46.08 32.826L45.92 32.986L45.04 31.706L44.64 31.146V30.986Z" fill="#F84910"/>
<path d="M39.84 55.7861H40.8L41.04 55.9461L40.8 56.1861H40.16L39.76 56.1061V56.0261L40.24 55.9461L39.84 55.8661V55.7861Z" fill="#F84910"/>
<path d="M34 38.3462L34.8 38.5062L34.96 38.8262L35.12 38.9862L34.48 38.9062L34 38.5062V38.3462Z" fill="#F84910"/>
<path d="M81.1999 24.5861L81.2799 24.8261L80.7199 25.9461L80.3199 26.1861L80.4799 25.7861L80.7999 25.1461L81.0399 24.9061L81.1999 24.5861Z" fill="#F84910"/>
<path d="M35.2 8.58606L35.36 8.82606L35.84 10.1061L36.24 10.8261L36.16 10.9861L36.08 10.7461L35.76 10.5861L35.2 8.90606V8.58606Z" fill="#F84910"/>
<path d="M92.32 56.6663H92.72L92.4 56.8263L92.32 56.9863L91.44 57.1463L91.2 56.9863L91.28 56.8263L92.32 56.6663Z" fill="#F84910"/>
<path d="M79.36 27.7061L79.44 27.8661L78.64 29.3861L78.48 29.4661L78.56 29.0661L79.2 27.8661L79.36 27.7061Z" fill="#F84910"/>
<path d="M49.28 37.3062L49.52 37.3862L50.24 38.5062V38.6662L50.56 38.8262L50.64 39.3062L50.32 38.9862L49.28 37.3862V37.3062Z" fill="#F84910"/>
<path d="M46.3199 33.946L46.7199 34.346L47.2799 35.226L47.6799 35.546L47.5999 35.706L47.1999 35.466L46.7199 34.746L46.3199 34.106V33.946Z" fill="#F84910"/>
<path d="M37.28 32.826L37.84 33.306L37.92 33.946L37.36 33.466L37.2 33.226L37.36 33.066L37.28 32.826Z" fill="#F84910"/>
<path d="M78.32 34.906L78.4 35.066L78.08 35.706L77.28 36.666V36.426L78.32 34.906Z" fill="#F84910"/>
<path d="M35.92 24.666L36.48 25.146L37.36 26.266L37.52 26.586L37.04 26.186L36.32 25.306L35.92 24.826V24.666Z" fill="#F84910"/>
<path d="M39.12 13.786L39.44 14.106L40 15.306L39.92 15.626L39.28 14.346L39.12 13.786Z" fill="#F84910"/>
<path d="M20.32 56.4263H20.48V56.5863H21.12L22.48 56.7463V56.8263H21.36L20.48 56.7463L20.24 56.6663L20.32 56.4263Z" fill="#F84910"/>
<path d="M50.8 37.3861L51.04 37.5461L51.36 38.2661L51.76 39.1461L51.68 39.3861L50.8 37.5461V37.3861Z" fill="#F84910"/>
<path d="M98.48 33.4659L98.64 33.5459L98 34.1859L97.36 34.5059V34.2659L98.48 33.4659Z" fill="#F84910"/>
<path d="M54.3199 33.946L54.4799 34.026L54.7999 34.826L54.7199 35.386L54.5599 35.146L54.3199 34.426V34.186V33.946Z" fill="#F84910"/>
<path d="M30.5601 30.906L30.9601 31.066L32.2401 32.346L31.8401 32.186L31.1201 31.466L30.5601 30.986V30.906Z" fill="#F84910"/>
<path d="M52.5601 14.3459L52.8001 14.5059L52.9601 15.1459V15.9459L52.8001 15.6259L52.5601 14.7459V14.3459Z" fill="#F84910"/>
<path d="M86.4 54.5862L86.64 54.6662V54.9062H87.28V54.9862L86.24 55.1462V54.6662L86.4 54.5862Z" fill="#F84910"/>
<path d="M64.96 37.5461H65.04V38.7461L64.96 39.3861H64.88L64.8 38.1061L64.96 37.5461Z" fill="#F84910"/>
<path d="M39.4399 35.386L39.7599 35.546V35.706L40.0799 35.866L40.3199 36.346L40.6399 36.666L40.5599 36.826L39.9199 36.106V35.946H39.7599L39.4399 35.546V35.386Z" fill="#F84910"/>
<path d="M54.72 35.066H54.88L55.12 35.706V36.186L54.96 36.266L54.72 35.546V35.066Z" fill="#F84910"/>
<path d="M83.92 33.146L84 33.386L83.28 34.346L83.2 34.026L83.68 33.386L83.92 33.146Z" fill="#F84910"/>
<path d="M105.52 25.626L105.76 25.706L104.96 26.426L104.72 26.506L104.8 26.186L105.36 25.706L105.52 25.626Z" fill="#F84910"/>
<path d="M41.92 31.866L42.32 32.266L42.88 32.906L42.8 33.066L42.56 32.986L41.84 32.026L41.92 31.866Z" fill="#F84910"/>
<path d="M35.4399 31.306L35.7599 31.466L36.4799 32.186L36.5599 32.506L36.1599 32.186L35.7599 31.786L35.4399 31.306Z" fill="#F84910"/>
<path d="M32.4 25.306L32.72 25.466L32.8 25.706L33.6 25.946L33.36 26.026L32.8 26.106L32.64 25.946L32.56 25.546L32.4 25.306Z" fill="#F84910"/>
<path d="M85.04 26.106L85.12 26.346L84.8 27.066L84.56 27.386H84.4L84.56 26.986L85.04 26.106Z" fill="#F84910"/>
<path d="M81.12 24.026H81.36L81.2 24.506L80.88 25.146L80.72 24.906L80.88 24.506L81.12 24.026Z" fill="#F84910"/>
<path d="M27.52 48.6663L28.08 48.7463L28.96 49.0663L28.88 49.2263L27.52 48.8263V48.6663Z" fill="#F84910"/>
<path d="M29.04 34.3459L29.36 34.5059L30.24 35.2259L30.08 35.3859L29.04 34.5059V34.3459Z" fill="#F84910"/>
<path d="M38 34.026L38.56 34.186L38.88 34.586L38.8 34.906L38 34.106V34.026Z" fill="#F84910"/>
<path d="M70.96 18.5861L71.04 18.7461L70.8 19.9461H70.64L70.72 18.9861L70.96 18.5861Z" fill="#F84910"/>
<path d="M44.64 35.546L45.04 35.946L45.6 36.666L45.76 37.066L45.36 36.666L44.64 35.706V35.546Z" fill="#F84910"/>
<path d="M100.4 37.1461L100.56 37.2261L99.36 38.0261L99.12 37.9461L100.24 37.2261L100.4 37.1461Z" fill="#F84910"/>
<path d="M108.08 49.5461L108.8 49.6261L108.48 49.7861L107.68 49.9461V49.7861L108.08 49.5461Z" fill="#F84910"/>
<path d="M21.2 41.3862L21.92 41.6262L22.16 41.7862V41.9462L21.76 41.8662L21.28 41.6262L21.2 41.3862Z" fill="#F84910"/>
<path d="M99.3601 37.4662L99.6001 37.5462L98.8801 38.0262L98.8001 38.1862L98.5601 38.1062L99.0401 37.5462L99.3601 37.4662Z" fill="#F84910"/>
<path d="M28.3999 51.2261L28.9599 51.3061L29.1999 51.4661L28.7999 51.6261L28.3199 51.4661L28.3999 51.2261Z" fill="#F84910"/>
<path d="M104.8 53.8662L105.04 53.9462L104.88 54.1062L104.4 54.1862H103.76L103.92 54.0262L104.8 53.8662Z" fill="#F84910"/>
<path d="M34.96 42.9062L35.44 43.0662L36.08 43.4663L35.92 43.5462L35.2 43.2262L34.96 43.0662V42.9062Z" fill="#F84910"/>
<path d="M53.28 31.386L53.44 31.546L53.76 32.506L53.6 32.586L53.2 31.626L53.28 31.386Z" fill="#F84910"/>
<path d="M89.36 44.1062L89.52 44.1862L88.96 44.7462L88.72 44.6662V44.5062L89.36 44.1062Z" fill="#F84910"/>
<path d="M69.2 38.1062L69.28 38.4262L68.96 39.1462L68.8 39.2262L69.04 38.2662L69.2 38.1062Z" fill="#F84910"/>
<path d="M98.96 38.0261L99.2 38.1061L98.32 38.7461L98.24 38.5061L98.96 38.0261Z" fill="#F84910"/>
<path d="M90.32 42.9861L90.64 43.0661L89.76 43.6261L89.84 43.3061L90.32 42.9861Z" fill="#F84910"/>
</g>
<defs>
<clipPath id="clip0_7_29">
<rect width="64" height="29.8262" fill="white" transform="scale(2)"/>
</clipPath>
</defs>
</svg>
