<svg width="128" height="60" viewBox="0 0 128 60" fill="none" xmlns="http://www.w3.org/2000/svg">
<g clip-path="url(#clip0_62_2349)">
<path d="M62.9597 1.38599H63.1997L63.4397 2.42599L63.5997 3.54599V7.70599L63.5197 9.86599V18.106L63.6797 29.066L63.9997 35.226L64.1597 37.306L64.3997 38.906L64.4797 39.386H64.8797L65.0397 37.546L65.4397 30.186L65.5197 28.986L65.7597 28.906V30.106L65.5997 35.546L65.4397 38.426L65.5197 39.466L65.9197 39.546L66.0797 38.426L66.3997 35.146L66.5597 33.946H66.7997L66.4797 38.666V39.626L66.9597 39.786L67.0397 39.066L67.5997 36.266L68.4797 31.066L69.5997 24.986L70.1597 21.866L70.8797 18.186L71.1197 16.586L71.2797 16.266H71.5197L71.2797 18.106L70.9597 19.786L70.4797 22.746L69.5997 28.426L69.1997 31.146L67.9197 38.826L67.7597 40.026L68.3997 40.106L68.9597 38.586L70.3997 33.626L71.1197 31.306L71.3597 30.986L71.2797 31.786L70.3997 34.986L69.6797 38.106L69.1197 40.346L70.1597 40.586L71.1997 38.266L72.8797 33.786L73.7597 31.626L74.9597 28.426L75.7597 26.506L76.8797 23.946L77.5197 22.426L77.6797 22.346L77.9197 21.946L78.0797 22.106L77.5997 23.786L76.5597 26.666L75.5997 29.466L74.7197 31.786L72.0797 38.826L71.2797 40.746V40.986L71.8397 41.066L73.1197 38.746L74.3997 36.186L75.1997 34.666L75.5997 34.106L75.6797 34.346L75.2797 35.466L73.7597 39.306L72.8797 41.386V41.626L73.2797 41.786H73.5197L74.4797 40.426L75.1997 39.386L76.2397 37.866L77.2797 36.426L78.3197 34.906L78.8797 34.106L80.6397 31.466L81.5197 30.026L82.2397 28.906L83.1997 27.306L84.0797 25.786L85.9997 22.906L86.9597 21.386L87.7597 20.106L88.7197 18.746L89.5197 17.466L90.4797 16.106L91.1197 15.066L93.0397 11.386L93.9197 10.106L94.7997 9.06599L95.1197 8.66599L95.8397 8.10599H95.9997L95.9197 8.82599L95.5197 10.106L94.8797 11.386L94.0797 12.586L93.3597 13.546L92.0797 15.146L91.1997 16.426L90.3997 17.626L88.6397 20.346L87.5197 22.186L86.5597 23.706L85.9197 24.826L85.1197 26.106L84.3197 27.546L83.3597 29.146L82.7197 30.266L81.9197 31.786L80.9597 33.626L80.1597 35.226L79.3597 36.746L78.4797 38.586L77.5197 40.506L76.3997 42.426L75.9997 43.146L76.3997 43.386L76.7997 43.306L77.4397 42.506L78.3197 41.386L79.2797 40.186L79.8397 39.466L80.7197 38.346L80.9597 38.186L81.0397 38.346L80.3197 39.466L79.4397 40.586L78.4797 41.866L77.5197 43.226L77.1997 43.626L77.2797 43.866L77.6797 44.106L78.0797 44.026L78.7197 43.226L79.7597 42.106L80.3197 41.466L81.0397 40.666L81.5997 40.026L82.4797 39.066L83.1997 38.186L83.6797 37.626L84.0797 37.226L85.1197 36.266L86.5597 34.826L87.1197 34.186L88.9597 32.346L89.5197 31.706L90.2397 30.986L90.7997 30.346L92.0797 29.066L92.3197 28.746H92.4797L92.6397 28.426L92.8797 28.346V28.186L93.2797 28.026L93.1197 28.426L90.4797 31.066L89.9197 31.706L88.7197 32.986L87.9997 33.866L87.4397 34.346L86.8797 34.986L86.1597 35.946L85.2797 36.906L84.5597 37.706L83.5197 38.826L82.9597 39.466L81.9197 40.586L81.3597 41.226L80.6397 42.026L79.9197 42.906L78.7197 44.186L78.4797 44.426L78.5597 44.746L78.8797 44.906L79.5197 44.346L80.7997 43.146L81.5997 42.426L82.4797 41.706L83.9197 40.266L84.4797 39.866L84.8797 39.946L84.7997 40.346L84.2397 40.986L83.1197 42.106L82.4797 42.666L81.9197 43.306L80.7197 44.506L79.8397 45.226L79.6797 45.386L79.7597 45.706L80.3197 46.346L80.7197 46.186L82.2397 45.066L83.5997 44.106L84.7997 43.226L86.2397 42.186L88.9597 40.266L89.5997 39.786L90.8797 38.906L91.9997 38.106L93.0397 37.306L94.4797 36.346L95.9197 35.306L97.0397 34.506L98.4797 33.466L99.4397 32.906H99.5997L99.5197 33.466L98.5597 34.426L97.1197 35.546L96.0797 36.426L95.1997 37.066L94.0797 37.946L93.1197 38.746L92.3197 39.306L90.6397 40.586L89.5997 41.386L88.4797 42.266L87.1997 43.306L86.1597 44.106L84.8797 45.146L83.5997 46.106L82.3197 47.146L81.6797 47.706H81.5197L81.5997 47.946L81.9197 48.186V48.346L82.5597 48.106L83.9197 47.306L86.8797 45.386L88.9597 44.106L90.7997 42.906L91.5197 42.506L91.4397 42.906L90.4797 43.466L89.2797 44.266L88.2397 44.906L87.8397 45.226L84.3197 47.546L83.0397 48.346L82.5597 48.666L82.8797 49.306L83.6797 49.066L85.9197 47.946L87.9997 47.066L89.9997 46.106L93.5997 44.346L95.1197 43.546L96.2397 42.906L96.6397 42.746L96.8797 42.826L96.4797 43.146L95.1997 43.786L93.9197 44.506L92.4797 45.306L90.9597 46.026L90.2397 46.506L88.2397 47.466L84.8797 49.146L83.7597 49.866V50.346H84.3197L85.7597 49.866L87.7597 49.146L91.4397 47.946L93.8397 47.066L95.4397 46.426L97.1197 45.786L102.72 43.546L105.12 42.506L107.28 41.626L109.84 40.506L113.76 38.746L114.96 38.106L116.24 37.386L117.52 36.746L118.8 36.346L119.28 36.266H120.88L119.84 37.306L118.64 38.106L117.6 38.586L115.44 39.226L113.36 39.786L111.6 40.426L110.32 41.066L108.96 41.786L107.12 42.666L105.12 43.706L103.84 44.346L101.04 45.706L99.1197 46.586L97.8397 47.226L96.2397 47.946L93.5197 49.226L91.1997 50.346L89.1997 51.306L87.4397 52.266L86.4797 52.746L85.6797 53.226L85.5197 53.306V53.626H86.0797L87.7597 53.146L89.7597 52.506L92.7197 51.706L95.9997 50.666L97.9197 50.106L104.64 48.026L105.68 47.706H105.92V47.866L103.36 48.666L100.48 49.546L98.0797 50.346L94.5597 51.466L91.3597 52.586L89.6797 53.226L86.3997 54.266L86.2397 54.346V55.146L88.5597 54.586L90.7997 54.106L96.7197 52.746L99.6797 52.026L101.52 51.546L103.28 51.066L104.08 50.986L104.24 51.226V51.626L100.88 52.586L98.9597 53.066L96.0797 53.866L93.0397 54.746L89.4397 55.786L87.1197 56.506L86.7197 56.826L86.6397 57.226H87.8397L90.3997 56.986L94.8797 56.266L96.5597 56.026H97.1997L97.1197 56.266L95.1997 56.586L92.8797 56.906L90.7997 57.306L93.1997 57.146L99.3597 56.906L103.76 56.666L107.28 56.346L109.28 56.266L109.68 56.346V56.826L109.6 56.906L107.6 57.066L103.6 57.146L100.08 57.386L95.1197 57.546L87.3597 57.946H85.5997L85.1997 57.066L84.5597 55.466L83.9197 54.106L83.0397 52.506L81.9197 50.986L81.1997 50.186L80.4797 49.306L79.7597 48.586L79.1197 48.026L78.2397 47.226L76.8797 46.186L75.5197 45.306L73.4397 44.186L71.3597 43.306L69.1997 42.666L67.1997 42.266L65.7597 42.106L64.5597 42.026H62.7197L60.7197 42.266L58.8797 42.586L56.8797 43.146L55.1197 43.786L53.1197 44.746L51.5997 45.626L50.3997 46.426L49.5997 47.066L48.7197 47.786L48.0797 48.426L47.4397 48.986L46.6397 49.786L46.0797 50.506L45.2797 51.386L44.2397 52.986L43.1197 55.066L41.9197 57.706L41.6797 57.946L40.5597 58.106L40.4797 57.866L40.5597 57.626L35.2797 57.546L32.2397 57.466L28.3997 57.226L27.6797 57.146L24.3997 56.986L21.3597 56.826L20.4797 56.746L20.2397 56.666L20.3197 56.426L20.6397 56.346H22.3197L29.6797 56.746L33.9997 56.826L40.5597 57.066L40.8797 56.266L38.7197 55.946L32.7197 54.826L28.6397 54.106V53.946L30.0797 54.026L33.4397 54.586L35.8397 55.066L39.2797 55.626L41.0397 55.786L41.2797 55.226V54.826L39.0397 54.266L37.6797 53.866L31.2797 52.266L28.7997 51.626L26.3197 50.906L24.7997 50.506L24.4797 50.346L23.0397 50.106L19.5997 49.306L17.1197 48.746L16.5597 48.426V48.186L17.2797 48.106L20.5597 49.066L24.0797 50.026L25.5997 50.426L29.8397 51.386L34.8797 52.666L40.8797 54.106L41.6797 54.266L41.7597 53.866L41.9197 53.466L41.4397 53.306L40.7197 52.986L39.1197 52.346L37.8397 51.866L35.9997 51.146L31.1997 49.626L31.2797 49.466L32.2397 49.626L34.3997 50.266L36.3997 50.746L38.3197 51.306L42.3997 52.666L42.4797 52.026L41.5997 51.466L39.2797 50.506L37.6797 49.786L35.4397 48.826L32.0797 47.226L30.2397 46.346L27.5997 45.066L25.1197 43.786L23.5197 43.066L22.4797 42.586L20.3197 41.706L18.7997 41.066L17.5197 40.666L14.9597 39.626L12.1597 38.746L10.6397 37.946L9.67973 37.226L8.95973 36.586L8.71973 36.346L9.03973 36.186H10.3197L11.9997 36.746L13.9997 37.706L15.9197 38.746L17.3597 39.546L18.6397 40.186L22.0797 41.706L24.3997 42.586L26.3197 43.386L36.7997 47.226L39.1997 47.946L43.7597 49.466H44.1597L44.6397 48.826L43.9197 48.346L42.3997 47.466L40.5597 46.346L39.5197 45.706L37.9197 44.666L36.0797 43.546L34.3997 42.586L33.5197 42.026L33.3597 41.706L34.0797 41.946L36.2397 43.226L37.5197 44.026L39.1997 44.906L40.9597 45.866L42.5597 46.746L44.2397 47.706L45.4397 48.266H45.5997L45.8397 47.866L45.1997 47.226L43.9197 46.346L42.3997 45.226L41.1997 44.266L39.1197 42.666L37.9197 41.706L36.6397 40.746L35.9997 40.186L35.5997 39.786L34.7997 39.146L34.6397 39.066V38.906L34.3197 38.746L33.1997 37.866L32.1597 36.986L30.7997 35.946L29.5197 34.906L28.0797 33.866L27.6797 33.466L28.1597 33.546L29.4397 34.586L30.8797 35.706L31.9997 36.506L33.4397 37.546L34.3197 38.186L35.9197 39.306L36.6397 39.866L37.5997 40.586L39.6797 42.186L40.7997 42.906L42.0797 43.866L43.1997 44.586L46.7997 46.746L47.1197 46.666L47.5997 46.266L47.1197 45.706L45.7597 44.346L45.1197 43.786L44.0797 42.906L43.1997 42.186L42.2397 41.306L41.3597 40.586L40.7197 40.026L40.8797 39.946L41.9997 40.746L42.7997 41.386L43.9197 42.346L45.1997 43.386L45.8397 43.946L46.8797 44.826L47.6797 45.386L48.0797 45.626L48.3997 45.546L48.7997 45.386L48.5597 44.906L45.3597 41.706L44.7997 41.066L40.0797 36.346L39.9197 35.946H39.7597L39.2797 35.306L38.6397 34.746L36.5597 32.666L36.3197 32.266L35.8397 31.946L35.2797 31.226L33.9997 29.866L33.3597 29.226V28.986L33.6797 29.146L39.3597 34.826L39.9997 35.386L41.2797 36.586L42.3997 37.626L43.0397 38.186L43.9197 38.986L44.7197 39.626L45.9997 40.826L46.6397 41.386L49.7597 44.266L50.1597 44.186L50.5597 43.946L50.4797 43.546L49.6797 42.506L48.6397 41.066L48.0797 40.266L47.5197 39.626L46.3997 38.106L45.6797 37.066L45.0397 36.266L44.2397 35.146L43.3597 34.026L42.5597 32.986L41.8397 32.026L41.1197 31.146L40.4797 30.346L40.5597 30.186L41.1197 30.746L41.8397 31.626L42.3997 32.346L43.2797 33.386L43.9197 34.106L44.4797 34.746L44.7997 35.146L45.6797 36.266L46.7197 37.546L47.8397 39.066L48.9597 40.506L49.7597 41.466L50.6397 42.586L51.1997 43.306V43.466L51.9197 43.066H52.2397L51.7597 41.946L50.7997 40.426L49.9197 39.066L47.5197 35.466L46.4797 33.866L45.0397 31.706L44.6397 31.146L44.7197 30.986L45.3597 31.786L46.3197 33.146L46.9597 34.026L47.9197 35.386L48.9597 36.826L49.7597 37.946L50.5597 39.226L51.5997 40.666L52.2397 41.626L52.7197 42.266L53.0397 42.346L52.8797 41.866L52.2397 40.586L50.8797 37.786L49.6797 35.146L48.5597 32.826L47.5197 30.586L46.7197 29.226L45.6797 27.226L44.8797 25.706L43.7597 23.626L42.7197 21.786L41.7597 19.786L39.8397 16.266L38.7997 14.666L38.1597 13.786L37.4397 12.826L36.7197 11.786L35.7597 10.106L35.2797 8.82599L35.0397 7.94599V7.38599L35.4397 7.54599L36.4797 8.50599L37.1997 9.46599L38.3197 11.626L39.5197 14.266L39.9997 15.306L40.6397 16.426L41.5197 17.706L42.3997 19.146L43.4397 20.826L44.4797 22.586L45.5997 24.506L46.7197 26.586L47.3597 27.706L47.9197 28.586L48.9597 30.106L50.8797 32.826L51.7597 34.186L53.5197 36.826L54.7197 38.746L55.3597 39.866L55.9197 40.666L56.1597 40.986H56.5597L56.3997 40.186L55.5197 37.866L54.4797 34.906L53.9997 33.786L53.4397 32.186L52.7197 30.586L52.0797 28.906L51.4397 27.306L49.9197 23.466L49.6797 22.906V22.666L49.9197 22.746L50.9597 25.306L51.5997 26.986L51.9197 27.786L52.5597 29.226L53.1997 30.906L53.7597 32.426L54.2397 33.466L54.6397 34.426L55.5197 36.746L55.7597 37.386V37.626H55.9197L56.7997 39.786L57.1197 40.746L57.7597 40.666L58.4797 40.506L58.2397 39.466L57.5197 36.906L56.7197 34.186L56.0797 31.786L55.5997 30.266L54.9597 27.866L54.3197 25.546L53.5197 22.586L53.4397 22.186V21.466L53.7597 21.386L54.4797 23.386L55.3597 26.426L55.9197 28.186L57.4397 33.706L58.1597 36.506L58.7997 39.066L59.0397 39.946V40.266L59.7597 40.106L59.5197 38.106L58.4797 32.186V31.466L58.6397 31.626L59.7597 37.226L60.0797 38.986L60.3197 39.946L60.8797 39.786L60.7997 38.106L60.3997 34.586L59.9197 29.706L59.3597 25.226L58.6397 19.786L58.5597 18.666L58.7197 18.746L59.1997 22.266L59.8397 26.906L60.3997 30.986L60.7997 34.266L61.0397 36.426L61.3597 39.226V39.786L61.7597 39.706L61.9197 37.946L61.9997 36.746L62.3197 27.866L62.3997 25.466L62.4797 20.266V10.586L62.3997 8.66599V3.62599L62.6397 2.34599L62.9597 1.38599Z" fill="#F7AB59"/>
<path d="M53.6004 21.386H53.7604L54.4804 23.386L55.3604 26.426L55.9204 28.186L57.4404 33.706L58.1604 36.506L58.2404 36.826V37.386H57.6804L56.9604 35.066L56.2404 32.346L55.6004 30.266L54.9604 27.866L54.3204 25.546L53.5204 22.586L53.4404 22.186V21.466L53.6004 21.386Z" fill="#F7AB59"/>
<path d="M93.1197 28.0259H93.2797L93.1197 28.4259L90.4797 31.0659L89.9197 31.7059L88.7197 32.9859L87.9997 33.8659L87.4397 34.3459L86.8797 34.9859L86.1597 35.9459L85.2797 36.9059L84.5597 37.7059L83.5197 38.8259L82.9597 39.4659L81.9197 40.5859L81.3597 41.2259L80.6397 42.0259L79.9197 42.9059L79.1997 43.7059V43.4659L79.2797 42.9059L78.8797 43.3059L78.7197 43.2259L79.7597 42.1059L80.3197 41.4659L81.0397 40.6659L81.5997 40.0259L82.4797 39.0659L83.1997 38.1859L83.6797 37.6259L84.0797 37.2259L85.1197 36.2659L86.5597 34.8259L87.1197 34.1859L88.9597 32.3459L89.5197 31.7059L90.2397 30.9859L90.7997 30.3459L92.0797 29.0659L92.3197 28.7459H92.4797L92.6397 28.4259L92.8797 28.3459V28.1859L93.1197 28.0259Z" fill="#F7AB59"/>
<path d="M16.8796 48.1062L17.5196 48.1862L21.1196 49.2262L23.8396 49.9462L24.8796 50.2662L28.1596 50.9862L32.7196 52.1062L38.4796 53.5462L38.3996 54.0262L36.9596 53.7062L34.2396 52.9862L32.2396 52.5062L28.7996 51.6262L26.3196 50.9062L24.7996 50.5062L24.4796 50.3462L23.0396 50.1062L19.5996 49.3062L17.1196 48.7462L16.5596 48.4262V48.1862L16.8796 48.1062Z" fill="#F7AB59"/>
<path d="M108.559 56.2661H109.279L109.679 56.3461V56.8261L109.599 56.9061L107.599 57.0661L103.599 57.1461L100.079 57.3861L95.1194 57.5461L93.5194 57.6261H91.6794V57.4661L91.3594 57.3061L93.1994 57.1461L99.3594 56.9061L103.759 56.6661L107.279 56.3461L108.559 56.2661Z" fill="#F7AB59"/>
<path d="M6.96039 54.5862H9.20039L10.8804 54.6662L15.7604 55.2262L16.7204 55.3862L17.0404 55.5462V55.7062H13.6004L11.7604 55.6262L8.72039 55.3862L7.28039 55.2262L6.40039 54.9862V54.8262L6.96039 54.5862Z" fill="#F7AB59"/>
<path d="M20.6402 56.3462H22.3202L29.6802 56.7462L29.8402 56.8262L31.7602 56.9062H32.6402L33.6802 57.0662V57.2262L32.5602 57.3062H29.7602L27.6802 57.1462L24.4002 56.9862L21.3602 56.8262L20.4802 56.7462L20.2402 56.6662L20.3202 56.4262L20.6402 56.3462Z" fill="#F7AB59"/>
<path d="M40.4805 30.186L41.0405 30.666L41.9205 31.706L42.4005 32.346L43.2805 33.386L43.9205 34.106L44.4805 34.746L44.8005 35.146L45.6805 36.266L46.7205 37.546L47.8405 39.066L48.9605 40.506L50.1605 41.946L50.0005 42.266L49.6805 42.186L49.5205 41.866L49.2805 41.626L48.7205 40.986L48.3205 40.586L47.6005 39.706L46.8005 38.666L45.9205 37.386L45.0405 36.266L44.2405 35.146L43.3605 34.026L42.5605 32.986L41.8405 32.026L41.1205 31.146L40.4805 30.346V30.186Z" fill="#F7AB59"/>
<path d="M16.6396 48.5061L17.4396 48.7461L21.9996 49.7861L23.3596 50.1061L24.4796 50.2661L25.3596 50.5861L27.7596 51.2261L29.7596 51.7861V51.8661L29.1996 51.9461L29.0396 52.0261L28.3196 51.8661L27.9996 51.6261L26.9596 51.3861L26.2396 51.1461L24.4796 50.9061L23.0396 50.5861L21.8396 50.2661L19.9196 49.8661L19.1996 49.6261L17.6796 49.3061L16.6396 49.1461L16.5596 48.9061L16.7196 48.8261L16.6396 48.5061Z" fill="#F7AB59"/>
<path d="M107.201 24.7461L107.361 24.8261L107.281 25.3861L106.161 26.5061L105.361 27.1461L103.921 28.2661L102.481 29.3061L101.361 30.1061L101.201 30.2661L100.881 30.1861L101.601 29.4661H101.761V29.3061H101.921V29.1461L102.561 28.5861L104.161 26.9861L105.041 26.2661L105.761 25.6261L106.641 25.0661L107.201 24.7461Z" fill="#F7AB59"/>
<path d="M121.28 54.7461H123.68V54.9861L122.88 55.3061L121.2 55.4661L116.64 55.7061H114.4L114.48 55.4661L115.36 55.3061L119.92 54.8261L121.28 54.7461Z" fill="#F7AB59"/>
<path d="M99.6791 21.3059H99.9191L99.8391 21.7059L99.1991 22.5059L97.7591 24.1059L95.6791 26.1859L95.1991 26.5059H95.0391L95.1191 26.0259V25.7059L96.5591 24.2659L97.1191 23.6259L99.1191 21.6259L99.6791 21.3059Z" fill="#F7AB59"/>
<path d="M19.04 23.866L19.44 23.946L20.4 24.666L21.28 25.386L22.08 26.106L23.44 27.386L24 27.946L24.64 28.506L25.68 29.546L25.6 29.706L24.32 28.746L22.88 27.626L20.64 25.866L19.6 24.906L19.12 24.266L19.04 23.866Z" fill="#F7AB59"/>
<path d="M58.7197 31.866L58.8797 32.106L59.3597 34.586L59.5197 35.466L59.9997 36.346L60.1597 36.266L60.3197 34.906H60.3997L60.7997 38.346V39.946L60.3197 40.026L60.1597 39.786L59.7597 37.786L59.2797 35.306L58.7197 32.266V31.866Z" fill="#F7AB59"/>
<path d="M33.3604 28.9861L33.6804 29.1461L39.3604 34.8261L40.0004 35.3861L40.4004 35.7861L40.4804 36.3461L40.9604 36.5061V36.6661L41.2804 36.8261L41.6004 37.1461L41.5204 37.3061L40.8804 36.9861L40.4004 36.6661L39.9204 36.1061V35.9461H39.7604L39.2804 35.3061L38.6404 34.7461L36.5604 32.6661L36.3204 32.2661L35.8404 31.9461L35.2804 31.2261L34.0004 29.8661L33.3604 29.2261V28.9861Z" fill="#F7AB59"/>
<path d="M44.6396 30.9861L45.0396 31.3861L46.0796 32.8261L46.7996 33.7861L47.3596 34.5861L48.3196 35.9461L49.4396 37.4661L50.3996 38.9861L51.1996 40.1061L51.9196 41.1461L51.8396 41.3061L51.5196 41.3861L51.1996 41.0661L50.2396 39.5461L47.5196 35.4661L46.4796 33.8661L45.0396 31.7061L44.6396 31.1461V30.9861Z" fill="#F7AB59"/>
<path d="M29.4404 21.2261L29.8404 21.3861L30.4804 21.9461L31.5204 22.9861L32.0804 23.7061L32.9604 24.7461L33.6004 25.6261V25.9461L33.2004 25.7861L32.5604 25.2261L31.2004 23.8661L30.4804 22.9861L29.6004 21.9461L29.4404 21.6261V21.2261Z" fill="#F7AB59"/>
<path d="M105.679 47.7061H105.919V47.8661L103.359 48.6661L100.479 49.5461L98.0794 50.3461L94.5594 51.4661L93.4394 51.8661L92.3194 52.1061L91.5194 52.3461L90.7994 52.5061L89.5994 52.8261L87.5994 53.3861L87.3594 53.3061L89.7594 52.5061L92.7194 51.7061L95.9994 50.6661L97.9194 50.1061L104.639 48.0261L105.679 47.7061Z" fill="#F7AB59"/>
<path d="M49.6797 22.666L49.9197 22.746L50.9597 25.306L51.5997 26.986L51.9197 27.786L52.5597 29.226L53.1997 30.906L53.7597 32.426L54.2397 33.466L54.6397 34.426L55.5197 36.746V37.386L55.4397 37.226H55.2797L54.4797 34.906L53.9997 33.786L53.4397 32.186L52.7197 30.586L52.0797 28.906L51.4397 27.306L49.9197 23.466L49.6797 22.906V22.666Z" fill="#F7AB59"/>
<path d="M80.8003 12.5061H80.9603L80.8003 13.4661L80.2403 14.9861L79.4403 16.8261L78.4803 18.5861L78.3203 18.4261L78.6403 17.1461L79.2003 15.6261L80.0003 13.7061L80.4803 12.7461L80.8003 12.5061Z" fill="#F7AB59"/>
<path d="M72.9598 7.62598H73.1998V8.58598L72.7998 10.346L72.2398 12.186L71.9998 12.746L71.7598 12.586L71.8398 11.146L72.2398 9.06598L72.5598 7.86598L72.9598 7.62598Z" fill="#F7AB59"/>
<path d="M51.9998 12.7461H52.1598L52.5598 13.7061L53.0398 15.5461L53.2798 16.5861L53.3598 17.3061L53.2798 17.5461L52.8798 17.4661L52.5598 16.6661L51.9998 14.7461L51.7598 13.4661V12.9861L51.9998 12.7461Z" fill="#F7AB59"/>
<path d="M91.4405 42.5061L91.5205 42.8261L90.2405 43.6261L88.8805 44.5061L88.1605 44.9861L87.3605 45.5461L83.8405 47.8661L83.6005 48.0261H83.3605V47.8661L82.8805 48.1861L82.5605 48.1061L83.9205 47.3061L86.8805 45.3861L88.9605 44.1061L90.8005 42.9061L91.4405 42.5061Z" fill="#F7AB59"/>
<path d="M65.6001 28.906H65.7601V30.106L65.6001 35.546L65.4401 38.426L65.3601 38.826H65.2801L65.1201 38.266V35.786L65.5201 28.986L65.6001 28.906Z" fill="#F7AB59"/>
<path d="M28.1602 33.946L28.4802 34.106L29.5202 34.826L30.5602 35.706L31.9202 36.746L32.7202 37.386L34.0002 38.426L34.6402 38.906V39.066L35.0402 39.226L35.6802 39.786L36.0002 40.106L36.6402 40.666H36.4002L35.6002 40.026L34.6402 39.306L33.6802 38.426L33.3602 38.186L32.7202 37.866L31.8402 37.146L31.3602 36.826L30.4002 35.946V35.786L29.6002 35.626L28.8002 34.906L28.4002 34.506L28.1602 33.946Z" fill="#F7AB59"/>
<path d="M28.4004 29.0659L28.8004 29.2259L29.8404 30.1059L30.8004 30.9859L31.4404 31.5459L32.3204 32.3459L33.2004 33.0659L34.0004 33.7859L34.5604 34.2659H34.3204L33.5204 33.5459L33.1204 33.2259L32.5604 32.9859L32.0804 32.7459L31.8404 32.6659V32.5059H31.6804L31.2804 31.9459L30.8004 31.6259V31.4659H30.6404V31.3059L30.4004 31.2259L30.1604 30.9059L29.5204 30.5859L28.9604 30.1059L28.4004 29.3059V29.0659Z" fill="#F7AB59"/>
<path d="M99.8395 21.146L99.9995 21.226L99.9195 21.546V21.306L99.1195 21.706L96.7195 24.106L96.1595 24.746L95.6795 25.146L95.4395 24.746L95.5195 24.426L96.4795 23.466L96.9595 23.146L97.3595 22.906L97.7595 22.346L98.2395 22.106L98.5595 21.466L98.8795 21.226H99.5995L99.8395 21.146Z" fill="#F7AB59"/>
<path d="M33.3604 41.7061L34.0804 41.9461L36.2404 43.2261L37.5204 44.0261L39.2004 44.9061L40.3204 45.5461L40.4004 45.7061H39.9204L39.3604 45.6261L37.9204 44.6661L36.0804 43.5461L34.4004 42.5861L33.5204 42.0261L33.3604 41.7061Z" fill="#F7AB59"/>
<path d="M71.2798 30.9861H71.3598L71.2798 31.7861L70.3998 34.9861L69.8398 37.3061H69.6798L69.5198 37.8661L69.1998 38.5861L68.9598 39.1461L68.7998 39.2261L69.0398 38.2661L69.6798 36.1061L70.8798 32.0261L71.2798 30.9861Z" fill="#F7AB59"/>
<path d="M108.56 56.2661H109.28L109.68 56.3461V56.8261L109.6 56.9061L107.6 57.0661H104.32V56.9861L105.28 56.8261L105.92 56.7461L106.48 56.5861H107.44L107.52 56.5061L107.28 56.3461L108.56 56.2661Z" fill="#F7AB59"/>
<path d="M28.6396 53.946L30.0796 54.026L33.4396 54.586L35.8396 55.066L37.1196 55.306L37.0396 55.546L36.0796 55.466L32.3196 54.746L28.8796 54.186L28.6396 54.106V53.946Z" fill="#F7AB59"/>
<path d="M80.8801 38.186L81.0401 38.346L80.3201 39.466L79.4401 40.586L78.4801 41.866L77.5201 43.226L77.2801 43.386L77.1201 43.066L77.2801 42.666L77.8401 42.026L79.5201 39.866L80.4001 38.746L80.8801 38.186Z" fill="#F7AB59"/>
<path d="M96.5593 56.0261H97.1993L97.1193 56.2661L95.1993 56.5861L92.8793 56.9061L90.7993 57.3061L89.4393 57.4661V57.3061L89.2793 57.2261L89.7593 57.0661L95.5193 56.1861L96.5593 56.0261Z" fill="#F7AB59"/>
<path d="M119.839 35.7061L120.559 35.8661L121.119 36.1061L120.959 36.4261L120.799 36.3461H119.279L118.239 36.5861L117.519 36.8261L117.359 36.7461L117.439 36.5061L117.359 36.1061L117.839 35.8661L119.839 35.7061Z" fill="#F7AB59"/>
<path d="M75.6001 34.106L75.6801 34.346L75.2801 35.466L74.3201 37.866L74.0001 37.786L73.5201 38.586L73.1201 38.906L73.2801 38.426L74.4001 36.186L75.2001 34.666L75.6001 34.106Z" fill="#F7AB59"/>
<path d="M33.9198 52.5061L34.6398 52.5861L38.4798 53.5461L38.3998 54.0261L36.9598 53.7061L34.2398 52.9861L33.8398 52.5861L33.9198 52.5061Z" fill="#F7AB59"/>
<path d="M88.7191 27.2261V27.4661L87.5991 28.9061L85.9191 31.1461L83.6791 34.1861L83.1991 34.8261H83.0391L83.1191 34.5061L84.0791 33.1461L84.9591 32.0261L86.0791 30.5061L87.0391 29.3061L87.8391 28.2661L88.5591 27.3861L88.7191 27.2261Z" fill="#F7AB59"/>
<path d="M82.2405 22.0259L82.4805 22.1059L81.7605 23.3859L80.5605 25.7859L80.0805 26.5859L79.4405 27.8659L78.6405 29.3859L78.4805 29.4659L78.5605 29.0659L80.8005 24.5859L81.6005 23.0659L82.1605 22.1059L82.2405 22.0259Z" fill="#F7AB59"/>
<path d="M27.5204 43.0662H28.0004L28.7204 43.5462L29.6004 44.1062L29.8404 44.4262V44.5862H30.0004V44.7462L29.2004 44.5062L27.3604 43.8662L27.6004 43.7862L27.5204 43.0662Z" fill="#F7AB59"/>
<path d="M96.6407 42.7461L96.8807 42.8261L96.4807 43.1461L95.2007 43.7861L93.9207 44.5061L92.4807 45.3061L91.5207 45.7861L90.7207 45.9461L90.8007 45.7061L93.6007 44.3461L95.1207 43.5461L96.2407 42.9061L96.6407 42.7461Z" fill="#F7AB59"/>
<path d="M109.76 53.0662H110.56V53.2262L109.92 53.3862L105.52 54.0262L102.96 54.3462H102.16V54.2662L105.84 53.7062L109.36 53.1462L109.76 53.0662Z" fill="#F7AB59"/>
<path d="M112.56 48.5862L112.8 48.6662V48.8262L110.64 49.4662L107.28 50.3462L105.92 50.6662H105.76V50.5062L107.68 49.9462L110.8 49.0662L112.56 48.5862Z" fill="#F7AB59"/>
<path d="M31.2802 23.626H31.7602L32.0002 23.866H32.2402L33.1202 24.986L33.6002 25.626V25.946L33.2002 25.786L32.5602 25.226L31.2002 23.866L31.2802 23.626Z" fill="#F7AB59"/>
<path d="M56.96 34.666L57.2 34.746L57.52 35.466L57.68 35.146L57.84 35.226L58.24 36.826V37.386H57.68L56.96 35.066V34.666Z" fill="#F7AB59"/>
<path d="M94.0799 32.666V32.906L93.1999 33.706L92.5599 34.266L91.5999 35.146L90.7999 35.866L90.1599 36.426L89.1999 37.306L88.3999 38.026L88.1599 38.346L87.9199 38.266L88.0799 37.946L89.0399 37.066L89.6799 36.506L90.7199 35.546L91.9199 34.506L92.5599 33.946L93.6799 32.986L94.0799 32.666Z" fill="#F7AB59"/>
<path d="M38.5596 34.186L38.8796 34.346L40.2396 35.626L40.3996 35.786L40.4796 36.346L40.9596 36.506V36.666L41.2796 36.826L41.5996 37.146L41.5196 37.306L40.8796 36.986L40.3996 36.666L39.9196 36.106V35.946H39.7596L39.2796 35.306L38.8796 34.986L38.7196 34.506L38.5596 34.186Z" fill="#F7AB59"/>
<path d="M105.679 47.7061H105.919V47.8661L103.359 48.6661L100.479 49.5461L98.0795 50.3461L97.4395 50.5061V50.2661L100.239 49.3861L103.359 48.4261L105.679 47.7061Z" fill="#F7AB59"/>
<path d="M27.6797 33.4661L28.1597 33.5461L29.4397 34.5861L30.8797 35.7061L31.9997 36.5061L33.1997 37.3861L33.1197 37.6261L32.7197 37.4661L31.7597 36.6661L30.7997 35.9461L29.5197 34.9061L28.0797 33.8661L27.6797 33.4661Z" fill="#F7AB59"/>
<path d="M17.8398 52.8262L19.8398 53.0662L24.8798 53.7862L25.0398 53.9462L23.5198 53.8662L20.1598 53.3862L18.5598 53.1462L17.7598 52.9862L17.8398 52.8262Z" fill="#F7AB59"/>
<path d="M53.6004 21.386H53.7604L54.0804 22.186L54.0004 22.746L54.4804 24.026L54.3204 24.186L54.1604 24.106L54.2404 24.666L54.0804 24.746L53.4404 22.186V21.466L53.6004 21.386Z" fill="#F7AB59"/>
<path d="M46.7998 14.2661L47.1198 14.4261L47.7598 16.1061L48.3198 17.7061L48.5598 18.4261V18.9061L48.3198 18.6661L47.5198 16.5061L46.7998 14.5861V14.2661Z" fill="#F7AB59"/>
<path d="M37.12 55.3062L39.92 55.7062L40.8 55.7862L41.04 55.9462L40.8 56.1862H40.16L36.96 55.6262L37.12 55.3062Z" fill="#F7AB59"/>
<path d="M88.32 27.866L88.48 28.186L88.08 28.826L87.44 29.706L86.64 30.746L86.24 31.146L86 31.226V30.986L87.04 29.546L88.16 28.106L88.32 27.866Z" fill="#F7AB59"/>
<path d="M84.4799 39.8662L84.8799 39.9462L84.7999 40.3462L84.2399 40.9862L83.3599 41.8662V41.6262L83.6799 41.2262H83.8399L83.9199 40.9862H84.0799L83.7599 40.6662L83.6799 40.9062L83.3599 41.0662L82.8799 41.6262L82.4799 41.9462H82.3199V42.1062L81.9199 42.2662L82.2399 41.8662L82.8799 41.3062L83.9199 40.2662L84.4799 39.8662Z" fill="#F7AB59"/>
<path d="M68.8799 32.186H68.9599L68.8799 33.146L68.0799 37.866L67.9199 38.186L67.9999 36.426L68.4799 33.626L68.7999 32.346L68.8799 32.186Z" fill="#F7AB59"/>
<path d="M40.7197 39.946L41.1197 40.106L41.9997 40.746L42.7997 41.386L44.4797 42.826L44.3997 43.066L44.2397 42.906L43.8397 42.746L43.0397 42.026L42.3997 41.466L41.5997 40.746L40.7197 40.026V39.946Z" fill="#F7AB59"/>
<path d="M100.399 37.1462L100.559 37.2262L97.6791 39.1462L96.2391 40.0262L94.7191 40.9862L93.2791 41.8662H93.0391L93.6791 41.3862L95.2791 40.4262L97.0391 39.3062L98.7191 38.1862L100.239 37.2262L100.399 37.1462Z" fill="#F7AB59"/>
<path d="M24.7998 50.5061L25.5998 50.6661L27.5198 51.1461L29.3598 51.7061L29.7598 51.7861V51.8661L29.1998 51.9461L29.0398 52.0261L28.3198 51.8661L27.9998 51.6261L26.9598 51.3861L26.7198 51.1461L25.2798 50.8261L24.7998 50.5861V50.5061Z" fill="#F7AB59"/>
<path d="M89.7602 18.5061L89.8402 18.6661L89.6802 19.9461L89.4402 20.3461L88.8002 20.5861L88.2402 21.1461V20.9061L89.2002 19.3061L89.7602 18.5061Z" fill="#F7AB59"/>
<path d="M49.6797 22.666L49.9197 22.746L50.9597 25.306L51.5997 26.986L51.9197 27.786L51.7597 28.106L50.8797 25.866L49.9197 23.466L49.6797 22.906V22.666Z" fill="#F7AB59"/>
<path d="M22.5596 47.0662L23.8396 47.3862L28.0796 48.7462L28.9596 49.0662L28.8796 49.2262L26.2396 48.4262L23.8396 47.6262L22.5596 47.2262V47.0662Z" fill="#F7AB59"/>
<path d="M66.9605 17.7061L67.0405 17.9461L66.8805 21.6261L66.7205 23.5461L66.5605 25.8661H66.4805V24.5861L66.8005 18.0261L66.9605 17.7061Z" fill="#F7AB59"/>
<path d="M66.5602 33.946H66.8002L66.5602 37.546L66.4802 38.346L66.3202 38.266L66.2402 37.786V36.906L66.4802 34.266L66.5602 33.946Z" fill="#F7AB59"/>
<path d="M84.2399 37.6262L84.4799 37.7062L83.9999 38.3462L82.7199 39.7062L82.3199 40.1062L81.9199 40.3462L82.0799 40.0262L82.6399 39.3062L82.7999 39.1462L83.1199 38.9062V38.6662L83.5199 38.1062H83.6799V37.9462L84.2399 37.6262Z" fill="#F7AB59"/>
<path d="M93.2793 32.906L93.6793 32.986L93.3593 33.386L92.4793 34.106L91.5993 34.906L91.2793 35.066L91.3593 34.746L91.6793 34.266L91.8393 33.946L92.5593 33.546L92.9593 33.146L93.2793 32.906Z" fill="#F7AB59"/>
<path d="M28.4004 29.0659L28.8004 29.2259L29.8404 30.1059L30.8004 30.9859L31.4404 31.5459L32.3204 32.3459L33.2004 33.0659L34.0004 33.7859L34.5604 34.2659H34.3204L33.5204 33.5459L32.6404 32.8259L31.5204 31.8659L30.4804 30.9059L29.8404 30.3459L28.4004 29.1459V29.0659Z" fill="#F7AB59"/>
<path d="M24.8799 50.3462L25.5999 50.4262L28.7999 51.1462L28.9599 51.3062H28.3999L27.9999 51.3862L26.3199 50.9062L25.0399 50.5862L24.8799 50.5062V50.3462Z" fill="#F7AB59"/>
<path d="M31.6797 51.946L32.3197 52.026L33.9997 52.426L33.9197 52.666L34.0797 52.906L33.1197 52.746L31.9197 52.426L31.6797 52.106V51.946Z" fill="#F7AB59"/>
<path d="M71.2796 16.2661H71.5196L71.2796 18.1061L71.1996 18.5061H71.0396L70.8796 19.6261L70.7996 19.9461H70.6396L70.7196 18.9861L71.1196 16.5861L71.2796 16.2661Z" fill="#F7AB59"/>
<path d="M53.9199 22.2661L54.1599 22.4261L54.6399 23.9461L54.7199 24.6661H54.5599L54.6399 25.5461L54.4799 25.6261L54.3199 25.5461L54.1599 24.9861V24.1061L54.3999 24.0261L53.9199 22.7461V22.2661Z" fill="#F7AB59"/>
<path d="M44.9604 47.0662L45.3604 47.3062L45.9204 47.8662L45.6004 48.3462L44.8804 48.1062L44.4004 47.8662L44.5604 47.7862V47.6262L44.8004 47.3862H44.9604V47.0662Z" fill="#F7AB59"/>
<path d="M85.4392 31.0659L85.6792 31.1459L84.9592 32.1059L83.9192 33.4659L83.2792 34.3459L83.1992 34.0259L83.7592 33.2259L84.3992 32.3459L84.8792 31.7059L85.4392 31.0659Z" fill="#F7AB59"/>
<path d="M26 37.6262L26.4 37.7062L27.76 38.5862L29.28 39.5462L29.92 40.0262L29.68 40.1062L28 39.0662L26.64 38.1862L26 37.7062V37.6262Z" fill="#F7AB59"/>
<path d="M51.8398 27.946H51.9998L52.6398 29.466L53.2798 31.066V31.466H53.1198L52.5598 30.186L52.0798 28.906L51.8398 28.346V27.946Z" fill="#F7AB59"/>
<path d="M44.6396 30.9861L45.0396 31.3861L46.0796 32.8261L46.7996 33.7861L47.3596 34.5861L47.5996 34.9061L47.5196 35.0661L47.1996 34.6661L46.8796 34.5061L45.9196 32.9861L45.0396 31.7061L44.6396 31.1461V30.9861Z" fill="#F7AB59"/>
<path d="M33.2 37.4661L33.6 37.6261L34.64 38.4261L34.88 38.5861L34.96 38.8261L35.12 38.9861L34.48 38.9061L33.44 38.0261L32.96 37.6261L33.2 37.4661Z" fill="#F7AB59"/>
<path d="M38 27.3059L38.32 27.6259L38.64 28.1859L39.44 28.9059L39.68 29.3859L40.16 29.9459L40.08 30.1059L39.44 29.4659V29.3059H39.28L39.04 29.0659L38.8 28.9059V28.7459H38.64L38.08 27.9459L38 27.3059Z" fill="#F7AB59"/>
<path d="M31.2802 49.4661L32.2402 49.6261L34.7202 50.3461L34.6402 50.5061H34.0002L31.2002 49.6261L31.2802 49.4661Z" fill="#F7AB59"/>
<path d="M37.2802 32.8259L37.8402 33.3059L38.6402 34.1059L38.7202 34.4259L38.8802 34.5859L38.8002 34.9059L37.2002 33.3059L37.3602 33.0659L37.2802 32.8259Z" fill="#F7AB59"/>
<path d="M92.8804 56.8262L93.2004 56.9062L92.9604 56.9862L95.5204 57.0662V57.1462L93.2004 57.2262L91.1204 57.3862H90.4004V57.3062L92.8804 56.8262Z" fill="#F7AB59"/>
<path d="M16.8796 48.3462H17.3596L17.9196 48.5062V48.6662L18.7996 48.7462L19.3596 48.9862L19.5996 49.0662L19.5196 49.2262L18.4796 49.0662L16.8796 48.6662L16.6396 48.4262L16.8796 48.3462Z" fill="#F7AB59"/>
<path d="M66.7205 34.186H66.8005L66.8805 36.186V37.226L66.6405 38.186L66.4805 38.426V37.546L66.7205 34.186Z" fill="#F7AB59"/>
<path d="M96.6397 42.7461L96.8797 42.8261L96.4797 43.1461L95.1997 43.7861L93.9197 44.5061L93.6797 44.5861V44.2661L94.9597 43.6261L96.2397 42.9061L96.6397 42.7461Z" fill="#F7AB59"/>
<path d="M82.2407 22.0259L82.4807 22.1059L81.7607 23.3859L80.8807 25.1459L80.7207 24.9059L80.8807 24.5059L81.8407 22.5859L82.2407 22.0259Z" fill="#F7AB59"/>
<path d="M96.8792 24.5061H97.1192L97.0392 24.8261L95.6792 26.1861L95.3592 26.4261H95.1992L95.2792 26.1061L96.6392 24.7461L96.8792 24.5061Z" fill="#F7AB59"/>
<path d="M33.1201 52.7461L33.8401 52.8261L36.6401 53.5461L37.2801 53.7061V53.7861L36.7201 53.8661V53.7061L35.7601 53.7861L35.4401 53.5461L34.9601 53.3861V53.2261L34.0801 53.0661L33.1201 52.8261V52.7461Z" fill="#F7AB59"/>
<path d="M104.799 38.3462V38.5862L103.599 39.2262L101.839 40.1862L101.359 40.4262L101.119 40.3462L103.119 39.2262L104.559 38.4262L104.799 38.3462Z" fill="#F7AB59"/>
<path d="M33.3604 28.9861L33.6804 29.1461L35.5204 30.9861L35.3604 31.3061L34.8004 30.7461L34.2404 30.1061L33.3604 29.2261V28.9861Z" fill="#F7AB59"/>
<path d="M40.7197 40.0261L41.3597 40.5061L42.4797 41.4661L43.2797 42.1861H43.0397L42.2397 41.7061L41.7597 41.3861L41.2797 40.7461L41.1997 40.5061L40.8797 40.4261L40.7197 40.2661V40.0261Z" fill="#F7AB59"/>
<path d="M56.7998 22.906L56.9598 23.146L57.3598 24.906L57.6798 26.826L57.5998 27.146L57.3598 26.346L56.7998 23.386V22.906Z" fill="#F7AB59"/>
<path d="M37.7598 40.8262L38.1598 40.9862L39.4398 42.0262L40.3198 42.5862L40.3998 42.7462L39.9198 42.6662L39.3598 42.4262L38.0798 41.1462L37.7598 40.8262Z" fill="#F7AB59"/>
<path d="M119.041 54.8262H119.921V54.9062L115.361 55.3862H114.721V55.3062L116.401 54.9862H117.281L119.041 54.8262Z" fill="#F7AB59"/>
<path d="M76.8004 37.1462L76.8804 37.3062L75.4404 39.3862L74.9604 40.1862L74.6404 40.5862L74.4004 40.6662L74.5604 40.3462L75.3604 39.1462L76.4804 37.5462L76.8004 37.1462Z" fill="#F7AB59"/>
<path d="M54.7197 35.0659H54.8797L55.5197 36.7459V37.3859L55.4397 37.2259H55.2797L54.7197 35.5459V35.0659Z" fill="#F7AB59"/>
<path d="M40.4805 30.186L41.0405 30.666L41.9205 31.706L42.4005 32.346L42.8805 32.906L42.8005 33.066L42.5605 32.986L41.8405 32.026L41.1205 31.146L40.4805 30.346V30.186Z" fill="#F7AB59"/>
<path d="M17.8398 52.8262L19.8398 53.0662L20.9598 53.2262L20.8798 53.3862H20.1598L18.5598 53.1462L17.7598 52.9862L17.8398 52.8262Z" fill="#F7AB59"/>
<path d="M48.5596 36.9062L48.9596 37.1463L49.5196 38.0263L49.6796 38.3463L49.9196 38.5863L50.4796 39.6263L50.3996 39.7863L48.6396 37.1463L48.5596 36.9062Z" fill="#F7AB59"/>
<path d="M105.68 47.7061H105.92V47.8661L103.36 48.6661L102.56 48.9061L102.24 48.8261L105.12 47.8661L105.68 47.7061Z" fill="#F7AB59"/>
<path d="M90.8793 56.9062H91.2793L91.4393 57.1462L90.7993 57.3062L89.4393 57.4662V57.3062L89.2793 57.2262L89.7593 57.0662L90.8793 56.9062Z" fill="#F7AB59"/>
<path d="M18.6396 40.2661L19.3596 40.5061L22.0796 41.7061L22.1596 41.9461L21.7596 41.8661L19.9996 40.9861L18.9596 40.5861L18.6396 40.2661Z" fill="#F7AB59"/>
<path d="M32.7197 50.1062L33.5197 50.2662L34.4797 50.5862L34.1597 50.8262L33.1997 50.6662L32.8797 50.5062L32.7197 50.1062Z" fill="#F7AB59"/>
<path d="M39.4401 57.2261L40.4801 57.3861V57.5461H38.0801V57.3861L38.3201 57.3061L39.4401 57.2261Z" fill="#F7AB59"/>
<path d="M35.44 55.0662L36.4 55.1462L37.12 55.3062L37.04 55.5462L36.08 55.4662L35.04 55.2262V55.1462L35.44 55.0662Z" fill="#F7AB59"/>
<path d="M23.7598 27.946L24.3998 28.426L24.7198 28.746L25.1198 28.986L25.6798 29.546L25.5998 29.706L24.3198 28.746L23.8398 28.346L23.7598 27.946Z" fill="#F7AB59"/>
<path d="M96.5605 42.9861L96.7205 43.0661L96.3205 43.7061L95.4405 43.7861L94.7205 44.1861L94.5605 44.1061L95.9205 43.3061L96.5605 42.9861Z" fill="#F7AB59"/>
<path d="M87.8409 47.1462H88.0809V47.3062L87.2809 47.6262L86.1609 48.1062L85.3609 48.4262L84.8809 48.5862L85.1209 48.3462L86.4809 47.7062L87.8409 47.1462Z" fill="#F7AB59"/>
<path d="M33.3604 41.7061L34.0804 41.9461L35.0404 42.5061L34.9604 42.6661L34.2404 42.5061L33.4404 41.9461L33.3604 41.7061Z" fill="#F7AB59"/>
<path d="M46.0801 37.4661L46.5601 37.8661L47.2801 38.9061L47.8401 39.7061H47.6001L46.8001 38.6661L46.0801 37.6261V37.4661Z" fill="#F7AB59"/>
<path d="M62.9598 1.38599H63.1998L63.3598 1.94599V2.42599H62.7998V1.86599L62.9598 1.38599Z" fill="#F7AB59"/>
<path d="M93.0398 33.7061L93.1998 33.7861L92.9598 34.0261L92.7998 34.5861L92.0798 35.0661L91.7598 35.1461L92.2398 34.5861L92.9598 33.7861L93.0398 33.7061Z" fill="#F7AB59"/>
<path d="M36.8799 8.98608H37.0399L37.1199 9.30608L37.4399 9.46608L37.8399 10.1861L38.0799 10.9061L38.1599 11.3061L37.9199 10.9861L37.1199 9.46608L36.8799 9.14608V8.98608Z" fill="#F7AB59"/>
<path d="M79.9996 34.7461L80.0796 34.9061L79.1196 36.7461L78.7196 37.6261L78.6396 37.3861L79.2796 35.8661L79.9996 34.7461Z" fill="#F7AB59"/>
<path d="M91.28 25.0659L91.36 25.3059L90.48 26.2659L90.24 26.6659L90.08 26.5859L90 26.1859L90.16 25.8659H90.72L90.88 25.5459L91.28 25.0659Z" fill="#F7AB59"/>
<path d="M53.9199 22.2661L54.1599 22.4261L54.6399 23.9461L54.5599 24.1861V24.0261H54.3999L53.9199 22.7461V22.2661Z" fill="#F7AB59"/>
<path d="M80.7203 12.426L81.1203 12.506L80.9603 13.226L80.6403 14.586L80.4003 14.666L80.3203 14.826L80.4003 14.426L80.8003 13.146L80.9603 12.506L80.4003 12.826L80.5603 12.506L80.7203 12.426Z" fill="#F7AB59"/>
<path d="M114.879 37.946L115.199 38.026L114.079 38.666L113.599 38.906L113.359 38.826L113.679 38.746L113.839 38.426L114.159 38.186L114.879 37.946Z" fill="#F7AB59"/>
<path d="M90.4797 15.7061H90.7197L90.5597 16.1061L89.7597 17.2261L89.6797 16.9861L89.8397 16.7461H89.9997L90.0797 16.1061L90.1597 15.8661L90.4797 15.7061Z" fill="#F7AB59"/>
<path d="M112.561 48.5862L112.801 48.6662V48.8262L111.681 49.1462H110.801L111.121 48.9862L112.561 48.5862Z" fill="#F7AB59"/>
<path d="M22.6396 53.5461L23.7596 53.6261L24.8796 53.7861L25.0396 53.9461L23.5196 53.8661L22.8796 53.7861L22.6396 53.5461Z" fill="#F7AB59"/>
<path d="M30.9597 51.7861L31.6797 51.8661L31.7597 52.1061L31.9197 52.2661L31.5997 52.3461L30.7197 52.1061V51.9461L30.9597 51.7861Z" fill="#F7AB59"/>
<path d="M65.9195 38.6663H65.9995V39.5463L65.7595 39.6263L65.5195 39.5463V38.9863L65.6795 38.7463L65.9195 38.6663Z" fill="#F7AB59"/>
<path d="M98.3991 38.186L98.7191 38.266L97.2791 39.226L97.1191 39.146L97.5191 38.666L98.3991 38.186Z" fill="#F7AB59"/>
<path d="M86.1594 35.5459L86.3994 35.6259L85.6794 36.5059L85.3594 36.6659V36.2659L86.1594 35.5459Z" fill="#F7AB59"/>
<path d="M96.6393 42.7461L96.8793 42.8261L96.4793 43.1461L95.5193 43.6261L95.2793 43.5461L95.5993 43.2261L96.6393 42.7461Z" fill="#F7AB59"/>
<path d="M92.9602 28.5061L93.0402 28.7461L92.7202 29.3061L92.1602 29.8661V29.6261L92.4002 29.0661L92.9602 28.5061Z" fill="#F7AB59"/>
<path d="M51.8398 27.946H51.9998L52.5598 29.226L52.4798 29.386L52.2398 29.306L51.8398 28.346V27.946Z" fill="#F7AB59"/>
<path d="M46.7998 14.2661L47.1198 14.4261L47.4398 15.3061V15.5461L47.1198 15.4661L46.7998 14.5861V14.2661Z" fill="#F7AB59"/>
<path d="M92.8803 56.8262L93.2003 56.9062L92.9603 56.9862L95.5203 57.0662V57.1462H92.3203L92.4003 56.9862L92.8803 56.8262Z" fill="#F7AB59"/>
<path d="M54.96 25.7061L55.04 25.8661H55.2L55.44 26.5861V27.2261L55.2 26.9861L54.96 26.1061V25.7061Z" fill="#F7AB59"/>
<path d="M104.799 38.3462V38.5862L103.599 39.2262L103.279 39.3862L103.359 39.0662L104.559 38.4262L104.799 38.3462Z" fill="#F7AB59"/>
<path d="M27.6797 33.4661L28.1597 33.5461L29.0397 34.2661L28.9597 34.5061L27.9997 33.7861L27.6797 33.4661Z" fill="#F7AB59"/>
<path d="M94.0803 32.666V32.906L93.2003 33.706L92.5603 34.266L92.3203 34.426L92.4803 34.106L92.8803 33.706L93.8403 32.826L94.0803 32.666Z" fill="#F7AB59"/>
<path d="M44.6396 30.9861L45.0396 31.3861L46.0796 32.8261L45.9196 32.9861L45.0396 31.7061L44.6396 31.1461V30.9861Z" fill="#F7AB59"/>
<path d="M39.8398 55.7861H40.7998L41.0398 55.9461L40.7998 56.1861H40.1598L39.7598 56.1061V56.0261L40.2398 55.9461L39.8398 55.8661V55.7861Z" fill="#F7AB59"/>
<path d="M34 38.3462L34.8 38.5062L34.96 38.8262L35.12 38.9862L34.48 38.9062L34 38.5062V38.3462Z" fill="#F7AB59"/>
<path d="M81.2003 24.5859L81.2803 24.8259L80.7203 25.9459L80.3203 26.1859L80.4803 25.7859L80.8003 25.1459L81.0403 24.9059L81.2003 24.5859Z" fill="#F7AB59"/>
<path d="M35.2002 8.58594L35.3602 8.82594L35.8402 10.1059L36.2402 10.8259L36.1602 10.9859L36.0802 10.7459L35.7602 10.5859L35.2002 8.90594V8.58594Z" fill="#F7AB59"/>
<path d="M92.3192 56.6663H92.7192L92.3992 56.8263L92.3192 56.9863L91.4392 57.1463L91.1992 56.9863L91.2792 56.8263L92.3192 56.6663Z" fill="#F7AB59"/>
<path d="M79.3605 27.7061L79.4405 27.8661L78.6405 29.3861L78.4805 29.4661L78.5605 29.0661L79.2005 27.8661L79.3605 27.7061Z" fill="#F7AB59"/>
<path d="M49.2803 37.3062L49.5203 37.3862L50.2403 38.5062V38.6662L50.5603 38.8262L50.6403 39.3062L50.3203 38.9862L49.2803 37.3862V37.3062Z" fill="#F7AB59"/>
<path d="M46.3203 33.946L46.7203 34.346L47.2803 35.226L47.6803 35.546L47.6003 35.706L47.2003 35.466L46.7203 34.746L46.3203 34.106V33.946Z" fill="#F7AB59"/>
<path d="M37.2802 32.8259L37.8402 33.3059L37.9202 33.9459L37.3602 33.4659L37.2002 33.2259L37.3602 33.0659L37.2802 32.8259Z" fill="#F7AB59"/>
<path d="M78.3203 34.906L78.4003 35.066L78.0803 35.706L77.2803 36.666V36.426L78.3203 34.906Z" fill="#F7AB59"/>
<path d="M35.9199 24.666L36.4799 25.146L37.3599 26.266L37.5199 26.586L37.0399 26.186L36.3199 25.306L35.9199 24.826V24.666Z" fill="#F7AB59"/>
<path d="M39.1201 13.7859L39.4401 14.1059L40.0001 15.3059L39.9201 15.6259L39.2801 14.3459L39.1201 13.7859Z" fill="#F7AB59"/>
<path d="M20.3202 56.4263H20.4802V56.5863H21.1202L22.4802 56.7463V56.8263H21.3602L20.4802 56.7463L20.2402 56.6663L20.3202 56.4263Z" fill="#F7AB59"/>
<path d="M50.7998 37.3862L51.0398 37.5462L51.3598 38.2662L51.7598 39.1462L51.6798 39.3862L50.7998 37.5462V37.3862Z" fill="#F7AB59"/>
<path d="M98.4794 33.4661L98.6394 33.5461L97.9994 34.1861L97.3594 34.5061V34.2661L98.4794 33.4661Z" fill="#F7AB59"/>
<path d="M54.3203 33.946L54.4803 34.026L54.8003 34.826L54.7203 35.386L54.5603 35.146L54.3203 34.426V34.186V33.946Z" fill="#F7AB59"/>
<path d="M30.5596 30.906L30.9596 31.066L32.2396 32.346L31.8396 32.186L31.1196 31.466L30.5596 30.986V30.906Z" fill="#F7AB59"/>
<path d="M52.5596 14.3459L52.7996 14.5059L52.9596 15.1459V15.9459L52.7996 15.6259L52.5596 14.7459V14.3459Z" fill="#F7AB59"/>
<path d="M86.4002 54.5862L86.6402 54.6662V54.9062H87.2802V54.9862L86.2402 55.1462V54.6662L86.4002 54.5862Z" fill="#F7AB59"/>
<path d="M64.9598 37.5461H65.0398V38.7461L64.9598 39.3861H64.8798L64.7998 38.1061L64.9598 37.5461Z" fill="#F7AB59"/>
<path d="M39.4404 35.386L39.7604 35.546V35.706L40.0804 35.866L40.3204 36.346L40.6404 36.666L40.5604 36.826L39.9204 36.106V35.946H39.7604L39.4404 35.546V35.386Z" fill="#F7AB59"/>
<path d="M54.7197 35.0659H54.8797L55.1197 35.7059V36.1859L54.9597 36.2659L54.7197 35.5459V35.0659Z" fill="#F7AB59"/>
<path d="M83.9192 33.146L83.9992 33.386L83.2792 34.346L83.1992 34.026L83.6792 33.386L83.9192 33.146Z" fill="#F7AB59"/>
<path d="M105.521 25.626L105.761 25.706L104.961 26.426L104.721 26.506L104.801 26.186L105.361 25.706L105.521 25.626Z" fill="#F7AB59"/>
<path d="M41.9198 31.866L42.3198 32.266L42.8798 32.906L42.7998 33.066L42.5598 32.986L41.8398 32.026L41.9198 31.866Z" fill="#F7AB59"/>
<path d="M35.4404 31.3059L35.7604 31.4659L36.4804 32.1859L36.5604 32.5059L36.1604 32.1859L35.7604 31.7859L35.4404 31.3059Z" fill="#F7AB59"/>
<path d="M32.4004 25.3059L32.7204 25.4659L32.8004 25.7059L33.6004 25.9459L33.3604 26.0259L32.8004 26.1059L32.6404 25.9459L32.5604 25.5459L32.4004 25.3059Z" fill="#F7AB59"/>
<path d="M85.0404 26.106L85.1204 26.346L84.8004 27.066L84.5604 27.386H84.4004L84.5604 26.986L85.0404 26.106Z" fill="#F7AB59"/>
<path d="M81.1207 24.0259H81.3607L81.2007 24.5059L80.8807 25.1459L80.7207 24.9059L80.8807 24.5059L81.1207 24.0259Z" fill="#F7AB59"/>
<path d="M27.5195 48.6663L28.0795 48.7463L28.9595 49.0663L28.8795 49.2263L27.5195 48.8263V48.6663Z" fill="#F7AB59"/>
<path d="M29.04 34.3459L29.36 34.5059L30.24 35.2259L30.08 35.3859L29.04 34.5059V34.3459Z" fill="#F7AB59"/>
<path d="M38 34.0259L38.56 34.1859L38.88 34.5859L38.8 34.9059L38 34.1059V34.0259Z" fill="#F7AB59"/>
<path d="M70.9596 18.5859L71.0396 18.7459L70.7996 19.9459H70.6396L70.7196 18.9859L70.9596 18.5859Z" fill="#F7AB59"/>
<path d="M44.6396 35.5459L45.0396 35.9459L45.5996 36.6659L45.7596 37.0659L45.3596 36.6659L44.6396 35.7059V35.5459Z" fill="#F7AB59"/>
<path d="M100.399 37.1462L100.559 37.2262L99.3591 38.0262L99.1191 37.9462L100.239 37.2262L100.399 37.1462Z" fill="#F7AB59"/>
<path d="M108.08 49.5461L108.8 49.6261L108.48 49.7861L107.68 49.9461V49.7861L108.08 49.5461Z" fill="#F7AB59"/>
<path d="M21.2002 41.3862L21.9202 41.6262L22.1602 41.7862V41.9462L21.7602 41.8662L21.2802 41.6262L21.2002 41.3862Z" fill="#F7AB59"/>
<path d="M99.3605 37.4661L99.6005 37.5461L98.8805 38.0261L98.8005 38.1861L98.5605 38.1061L99.0405 37.5461L99.3605 37.4661Z" fill="#F7AB59"/>
<path d="M28.4003 51.2261L28.9603 51.3061L29.2003 51.4661L28.8003 51.6261L28.3203 51.4661L28.4003 51.2261Z" fill="#F7AB59"/>
<path d="M104.8 53.8662L105.04 53.9462L104.88 54.1062L104.4 54.1862H103.76L103.92 54.0262L104.8 53.8662Z" fill="#F7AB59"/>
<path d="M34.96 42.9062L35.44 43.0662L36.08 43.4663L35.92 43.5462L35.2 43.2262L34.96 43.0662V42.9062Z" fill="#F7AB59"/>
<path d="M53.2802 31.386L53.4402 31.546L53.7602 32.506L53.6002 32.586L53.2002 31.626L53.2802 31.386Z" fill="#F7AB59"/>
<path d="M89.3607 44.1062L89.5207 44.1862L88.9607 44.7462L88.7207 44.6662V44.5062L89.3607 44.1062Z" fill="#F7AB59"/>
<path d="M69.1998 38.1062L69.2798 38.4262L68.9598 39.1462L68.7998 39.2262L69.0398 38.2662L69.1998 38.1062Z" fill="#F7AB59"/>
<path d="M98.9602 38.0261L99.2002 38.1061L98.3202 38.7461L98.2402 38.5061L98.9602 38.0261Z" fill="#F7AB59"/>
<path d="M90.3198 42.9861L90.6398 43.0661L89.7598 43.6261L89.8398 43.3061L90.3198 42.9861Z" fill="#F7AB59"/>
</g>
<defs>
<clipPath id="clip0_62_2349">
<rect width="64" height="29.8262" fill="white" transform="scale(2)"/>
</clipPath>
</defs>
</svg>
