<svg width="32" height="32" viewBox="0 0 32 32" fill="none" xmlns="http://www.w3.org/2000/svg">
<path fill-rule="evenodd" clip-rule="evenodd" d="M6.66675 26.6663C6.66675 25.9299 7.26371 25.333 8.00008 25.333H24C24.7364 25.333 25.3334 25.9299 25.3334 26.6663C25.3334 27.4027 24.7364 27.9997 24 27.9997H8.00008C7.26371 27.9997 6.66675 27.4027 6.66675 26.6663Z" fill="#606060"/>
<path d="M20.2598 15.2093C20.6964 14.6165 21.531 14.4897 22.124 14.9263C22.7169 15.3629 22.8437 16.1975 22.4072 16.7905L22.4032 16.7959L22.3937 16.8088L22.3582 16.8565C22.3274 16.8977 22.2829 16.9573 22.226 17.0327C22.1122 17.1832 21.9492 17.3972 21.7492 17.6535C21.3504 18.1647 20.8002 18.8507 20.2013 19.5407C19.6082 20.224 18.941 20.9417 18.3104 21.4991C17.9965 21.7764 17.6604 22.0423 17.3224 22.246C17.021 22.4277 16.5484 22.6667 16.0013 22.6667C15.4544 22.6667 14.9817 22.4277 14.6804 22.2461C14.3424 22.0424 14.0061 21.7765 13.6921 21.4993C13.0613 20.942 12.3938 20.2243 11.8003 19.5409C11.2011 18.8511 10.6507 18.1649 10.2516 17.6539C10.0516 17.3976 9.88829 17.1836 9.7745 17.0329C9.71758 16.9576 9.67297 16.8981 9.64225 16.8569L9.60678 16.8092L9.59721 16.7963L9.59373 16.7915C9.15696 16.1987 9.28304 15.3633 9.8759 14.9265C10.4687 14.4899 11.3033 14.6163 11.7401 15.2091L11.742 15.2116L11.7494 15.2216L11.7802 15.2631C11.8077 15.3 11.8489 15.3549 11.9022 15.4255C12.0087 15.5665 12.1634 15.7692 12.3536 16.0129C12.7352 16.5017 13.2549 17.1491 13.8137 17.7924C14.0989 18.1208 14.3876 18.4403 14.668 18.7333V5.33333C14.668 4.59695 15.265 4 16.0013 4C16.7377 4 17.3346 4.59695 17.3346 5.33333V18.7324C17.6146 18.4397 17.9029 18.1207 18.1876 17.7927C18.746 17.1493 19.2653 16.502 19.6466 16.0132C19.8368 15.7695 19.9914 15.5668 20.0978 15.4257C20.1512 15.3552 20.1922 15.3003 20.2197 15.2633L20.2506 15.2219L20.258 15.2119L20.2598 15.2093Z" fill="#606060"/>
</svg>
