<svg width="32" height="32" viewBox="0 0 32 32" fill="none" xmlns="http://www.w3.org/2000/svg">
<path d="M24 13.3335C24 13.3335 16 18.6668 16 28.0002" stroke="#606060" stroke-linecap="square"/>
<path d="M12.4651 14.91C10.3171 16.5188 7.2576 16.3467 5.30463 14.3937C2.07308 11.1622 2.71939 4.05276 2.71939 4.05276C2.71939 4.05276 9.82881 3.40645 13.0604 6.638C14.3397 7.91737 14.8549 9.67159 14.6057 11.3333" stroke="#606060" stroke-linecap="square"/>
<path d="M19.9517 17.09C18.1919 15.1776 18.2395 12.1998 20.0943 10.3449C22.9669 7.4724 29.2863 8.0469 29.2863 8.0469C29.2863 8.0469 29.8609 14.3664 26.9883 17.2389C25.9835 18.2437 24.6493 18.7181 23.3333 18.6623" stroke="#606060" stroke-linecap="square"/>
<path d="M8 9.3335C8 9.3335 16 16.0002 16 28.0002" stroke="#606060" stroke-linecap="square"/>
</svg>
