<svg width="32" height="32" viewBox="0 0 32 32" fill="none" xmlns="http://www.w3.org/2000/svg">
<path opacity="0.4" d="M16 3.3335C21.9711 3.3335 24.9567 3.3335 26.8117 5.18848C28.6667 7.04348 28.6667 10.029 28.6667 16.0002C28.6667 21.9712 28.6667 24.9568 26.8117 26.8119C24.9567 28.6668 21.9711 28.6668 16 28.6668C10.029 28.6668 7.04335 28.6668 5.18829 26.8119C3.33335 24.9568 3.33335 21.9712 3.33335 16.0002C3.33335 10.029 3.33335 7.04348 5.18829 5.18848C7.04335 3.3335 10.029 3.3335 16 3.3335Z" fill="#D7D7D7"/>
<path d="M16 3.3335C21.9711 3.3335 24.9567 3.3335 26.8117 5.18848C28.6667 7.04348 28.6667 10.029 28.6667 16.0002C28.6667 21.9712 28.6667 24.9568 26.8117 26.8119C24.9567 28.6668 21.9711 28.6668 16 28.6668C10.029 28.6668 7.04335 28.6668 5.18829 26.8119C3.33335 24.9568 3.33335 21.9712 3.33335 16.0002C3.33335 10.029 3.33335 7.04348 5.18829 5.18848C7.04335 3.3335 10.029 3.3335 16 3.3335Z" stroke="#D7D7D7"/>
<path d="M18.6667 22.6668C18.6667 22.6668 13.3334 17.757 13.3334 16.0002C13.3334 14.2434 18.6667 9.3335 18.6667 9.3335" stroke="#D7D7D7" stroke-linecap="round" stroke-linejoin="round"/>
</svg>
