<svg width="32" height="32" viewBox="0 0 32 32" fill="none" xmlns="http://www.w3.org/2000/svg">
<path d="M22.6667 26.6668C24.1394 26.6668 25.3333 25.4729 25.3333 24.0002C25.3333 22.5274 24.1394 21.3335 22.6667 21.3335C21.1939 21.3335 20 22.5274 20 24.0002C20 25.4729 21.1939 26.6668 22.6667 26.6668Z" stroke="#606060"/>
<path d="M9.33329 26.6668C10.8061 26.6668 12 25.4729 12 24.0002C12 22.5274 10.8061 21.3335 9.33329 21.3335C7.86053 21.3335 6.66663 22.5274 6.66663 24.0002C6.66663 25.4729 7.86053 26.6668 9.33329 26.6668Z" stroke="#606060"/>
<path d="M14.6666 22.6668H20M18 9.3335H19.2572C21.0044 9.3335 21.8781 9.3335 22.6188 9.75286C23.3594 10.1722 23.8533 10.9465 24.841 12.4949C25.5336 13.5807 26.2606 14.3688 27.2829 15.07C28.3121 15.7759 28.8016 16.121 29.0732 16.6748C29.3333 17.2052 29.3333 17.8335 29.3333 19.0899C29.3333 20.7463 29.3333 21.5746 28.868 22.1008C28.848 22.1235 28.8276 22.1455 28.8065 22.1668C28.3166 22.6668 27.5458 22.6668 26.004 22.6668H25.3333" stroke="#606060" stroke-linecap="round" stroke-linejoin="round"/>
<path d="M17.3334 9.3335L18.659 12.6476C19.3084 14.2714 19.6332 15.0832 20.3104 15.5416C20.9876 16.0002 21.862 16.0002 23.6108 16.0002H28" stroke="#606060" stroke-linecap="round" stroke-linejoin="round"/>
<path d="M6.49272 22.6668C4.68908 22.6668 3.78727 22.6668 3.22695 22.0811C2.66663 21.4952 2.66663 20.5524 2.66663 18.6668V9.3335C2.66663 7.44788 2.66663 6.50507 3.22695 5.91928C3.78727 5.3335 4.68908 5.3335 6.49272 5.3335H13.5072C15.3109 5.3335 16.2126 5.3335 16.773 5.91928C17.3333 6.50507 17.3333 7.44788 17.3333 9.3335V22.6668H11.5942" stroke="#606060" stroke-linecap="round" stroke-linejoin="round"/>
</svg>
