<svg width="32" height="32" viewBox="0 0 32 32" fill="none" xmlns="http://www.w3.org/2000/svg">
<path fill-rule="evenodd" clip-rule="evenodd" d="M25.3333 5.33366C25.3333 6.07006 24.7363 6.66699 23.9999 6.66699L7.99996 6.66699C7.26356 6.66699 6.66663 6.07006 6.66663 5.33366C6.66663 4.59726 7.26356 4.00033 7.99996 4.00033L23.9999 4.00033C24.7363 4.00033 25.3333 4.59726 25.3333 5.33366Z" fill="#606060"/>
<path d="M11.7402 16.7907C11.3036 17.3835 10.469 17.5103 9.87603 17.0737C9.2831 16.6371 9.1563 15.8025 9.59283 15.2095L9.59683 15.2041L9.6063 15.1912L9.64176 15.1435C9.67256 15.1023 9.7171 15.0427 9.77403 14.9673C9.88776 14.8168 10.0508 14.6028 10.2508 14.3465C10.6496 13.8353 11.1998 13.1493 11.7987 12.4593C12.3918 11.776 13.059 11.0583 13.6896 10.5009C14.0035 10.2236 14.3396 9.95773 14.6776 9.754C14.979 9.57227 15.4516 9.33333 15.9987 9.33333C16.5456 9.33333 17.0183 9.57227 17.3196 9.75386C17.6576 9.9576 17.9939 10.2235 18.3079 10.5007C18.9387 11.058 19.6062 11.7757 20.1997 12.4591C20.7989 13.1489 21.3493 13.8351 21.7484 14.3461C21.9484 14.6024 22.1117 14.8164 22.2255 14.9671C22.2824 15.0424 22.327 15.1019 22.3578 15.1431L22.3932 15.1908L22.4028 15.2037L22.4063 15.2085C22.843 15.8013 22.717 16.6367 22.1241 17.0735C21.5313 17.5101 20.6967 17.3837 20.2599 16.7909L20.258 16.7884L20.2506 16.7784L20.2198 16.7369C20.1923 16.7 20.1511 16.6451 20.0978 16.5745C19.9913 16.4335 19.8366 16.2308 19.6464 15.9871C19.2648 15.4983 18.7451 14.8509 18.1863 14.2076C17.9011 13.8792 17.6124 13.5597 17.332 13.2667V26.6667C17.332 27.4031 16.735 28 15.9987 28C15.2623 28 14.6654 27.4031 14.6654 26.6667L14.6654 13.2676C14.3854 13.5603 14.0971 13.8793 13.8124 14.2073C13.254 14.8507 12.7347 15.498 12.3534 15.9868C12.1632 16.2305 12.0086 16.4332 11.9022 16.5743C11.8488 16.6448 11.8078 16.6997 11.7803 16.7367L11.7494 16.7781L11.742 16.7881L11.7402 16.7907Z" fill="#606060"/>
</svg>
