<svg width="32" height="32" viewBox="0 0 32 32" fill="none" xmlns="http://www.w3.org/2000/svg">
<path d="M8.66663 23.3335V19.3335M15.3333 23.3335V11.3335M22 23.3335V18.0002" stroke="#606060" stroke-linecap="round"/>
<path d="M28.6666 7.3335C28.6666 9.54263 26.8758 11.3335 24.6666 11.3335C22.4574 11.3335 20.6666 9.54263 20.6666 7.3335C20.6666 5.12436 22.4574 3.3335 24.6666 3.3335C26.8758 3.3335 28.6666 5.12436 28.6666 7.3335Z" stroke="#606060"/>
<path d="M28.6607 14.6668C28.6607 14.6668 28.6667 15.1195 28.6667 16.0002C28.6667 21.9714 28.6667 24.9568 26.8118 26.8119C24.9567 28.6668 21.9711 28.6668 16 28.6668C10.0289 28.6668 7.04336 28.6668 5.18836 26.8119C3.33337 24.9568 3.33337 21.9714 3.33337 16.0002C3.33337 10.0291 3.33337 7.04352 5.18836 5.18852C7.04336 3.33354 10.0289 3.33354 16 3.33354L17.3334 3.3335" stroke="#606060" stroke-linecap="round" stroke-linejoin="round"/>
</svg>
