<svg width="32" height="32" viewBox="0 0 32 32" fill="none" xmlns="http://www.w3.org/2000/svg">
<path d="M20 10.667C20 12.8761 18.2092 14.667 16 14.667C13.7908 14.667 12 12.8761 12 10.667C12 8.45786 13.7908 6.66699 16 6.66699C18.2092 6.66699 20 8.45786 20 10.667Z" stroke="#F84910" stroke-linecap="round" stroke-linejoin="round"/>
<path d="M21.3334 5.33301C23.5426 5.33301 25.3334 7.12387 25.3334 9.33301C25.3334 10.9638 24.3575 12.3666 22.9578 12.9894" stroke="#F84910" stroke-linecap="round" stroke-linejoin="round"/>
<path d="M18.2858 18.667H13.7143C10.5584 18.667 8 21.2254 8 24.3813C8 25.6437 9.02335 26.667 10.2857 26.667H21.7143C22.9767 26.667 24 25.6437 24 24.3813C24 21.2254 21.4416 18.667 18.2858 18.667Z" stroke="#F84910" stroke-linecap="round" stroke-linejoin="round"/>
<path d="M23.619 17.333C26.7749 17.333 29.3333 19.8914 29.3333 23.0473C29.3333 24.3097 28.31 25.333 27.0476 25.333" stroke="#F84910" stroke-linecap="round" stroke-linejoin="round"/>
<path d="M10.6666 5.33301C8.45749 5.33301 6.66663 7.12387 6.66663 9.33301C6.66663 10.9638 7.64253 12.3666 9.0422 12.9894" stroke="#F84910" stroke-linecap="round" stroke-linejoin="round"/>
<path d="M4.95235 25.333C3.68997 25.333 2.66663 24.3097 2.66663 23.0473C2.66663 19.8914 5.225 17.333 8.38091 17.333" stroke="#F84910" stroke-linecap="round" stroke-linejoin="round"/>
</svg>
