<svg width="1494" height="1300" viewBox="0 0 1494 1300" fill="none" xmlns="http://www.w3.org/2000/svg">
<g clip-path="url(#clip0_63_2694)">
<path d="M199.773 737.402C200.421 627.815 28.5458 547.413 -22.8735 545.538L-25.2801 952.685C51.6367 930.263 199.125 846.988 199.773 737.402Z" fill="#FDF0DD" fill-opacity="0.4"/>
<path d="M87.8703 797.127C-114.215 824.512 -23.4532 1276.39 4.37604 1366L329.884 1366C288.741 1249.47 289.956 769.742 87.8703 797.127Z" fill="#E4A5A1" fill-opacity="0.4"/>
<path d="M255.809 937.59C148.259 821.981 -231.97 1012.42 -300.075 1068.35L-65.2697 1320.74C136.388 1319.54 363.359 1053.2 255.809 937.59Z" fill="#F7A479" fill-opacity="0.4"/>
<path d="M186.24 1101.42C111.918 1001.42 -101.305 1120.06 -137.693 1158.51L24.567 1376.82C145.902 1392.54 260.561 1201.42 186.24 1101.42Z" fill="#F1BB9F" fill-opacity="0.4"/>
<path d="M778.87 1311.4H1121C1326.13 1125 1139 869 937.999 869C736.998 869 554 1128 778.87 1311.4Z" fill="#FEF3D7" fill-opacity="0.3"/>
<path d="M645 1317.22H1230C1282 1187 1247 1083.06 1127 1066C1007 1048.94 730.421 1221.81 645 1317.22Z" fill="#FFCA82" fill-opacity="0.3"/>
<path d="M1105 1316.4H1479C1546 1108 1372 821 1230 821C1088 821 845 1108 1105 1316.4Z" fill="#FFCA82" fill-opacity="0.3"/>
<path d="M414 1169C322.8 1181.8 290 1278.33 285 1325L657 1317C623 1255 528 1153 414 1169Z" fill="#FF8F51" fill-opacity="0.4"/>
<path d="M179 530C179 437.906 21.8834 339.151 -25.0011 337L-25.0011 744C44.9963 722 178.999 657 179 530Z" fill="#FFEDC9" fill-opacity="0.4"/>
<path d="M43.0001 214C43.0004 104.453 -70.3954 11.836 -117.28 9.68491L-117.28 416.685C-47.2825 394.685 42.9998 323.547 43.0001 214Z" fill="#FEE1B9" fill-opacity="0.4"/>
<path d="M168.086 210.918C171.468 124.995 28.1774 55.8518 -32.1829 55.6119L-44.747 374.841C46.1477 355.425 164.703 296.841 168.086 210.918Z" fill="#FEEFD8" fill-opacity="0.4"/>
<path d="M210.997 1015C43.9941 1029.57 119 1270 141.998 1317.68L410.997 1317.68C376.997 1255.68 378.001 1000.43 210.997 1015Z" fill="#E4A5A1" fill-opacity="0.4"/>
<path d="M271.033 1059.41C271.033 934.818 29.1298 902.845 -23.0097 911.998L-23.0044 1184C64.9985 1269 271.034 1184 271.033 1059.41Z" fill="#F0B8A7" fill-opacity="0.4"/>
</g>
<defs>
<clipPath id="clip0_63_2694">
<rect width="747" height="650" fill="white" transform="scale(2)"/>
</clipPath>
</defs>
</svg>
